<?xml version="1.0" standalone="no"?>
<!DOCTYPE svg PUBLIC "-//W3C//DTD SVG 1.1//EN" "http://www.w3.org/Graphics/SVG/1.1/DTD/svg11.dtd" >
<svg xmlns="http://www.w3.org/2000/svg">
<metadata>
Created by FontPrep 20130207 at Wed Dec  4 09:43:09 2013
 By Thomas
2009-2012 copyright (c) by Jean Francois Porchez, ZeCraft-Typofonderie. All rights reserved. Distributed exclusively by Arjowiggins under license from ZeCraft-Typofonderie. Any distribution to a third party is prohibited. Names are trademarks in some cases.
</metadata>
<defs>
<font id="145f8228578ecb194312b21e213a3a09" horiz-adv-x='1024' >
  <font-face 
    font-family="AWConquerorDidot-Light"
    font-weight="300"
    font-stretch="normal"
    units-per-em="2048"
    panose-1="2 8 3 3 8 5 2 2 2 4"
    ascent="1559"
    descent="-489"
    x-height="920"
    cap-height="1380"
    bbox="-805 -862 2695.01 2243.01"
    underline-thickness="20"
    underline-position="-395"
    unicode-range="U+000D-FB06"
  />
<missing-glyph 
d="M860 0h-692v1382h692v-1382zM223 1303v-859l252 -247v125l-168 221v151l414 -411v-125l80 -84v512l-80 80v-156l-414 412v133l168 -111v111z" />
    <glyph glyph-name="f_f" unicode="ff" horiz-adv-x="1245" 
d="M770 920v165q0 27 2 39q-38 0 -66 27t-28 64t20 71t21 45q0 31 -43 51t-96 21q-104 0 -154 -51t-51 -172v-260h395zM580 1411q82 0 152 -30t108 -78q88 104 247 104q113 0 182 -53t68 -133q1 -45 -29 -74t-76 -29t-76 30t-30 70t23 76t22 47q0 57 -86 57q-85 0 -115 -47
q-30 -48 -30 -171v-260h236v-9h-236v-630q0 -230 39 -257q18 -13 74 -16l61 -2v-6h-477v6l41 2q43 2 58 14q34 28 34 259v630h-395v-630q0 -232 34 -258q15 -12 58 -15l41 -2v-6h-436v6l41 2q43 2 58 14q34 28 34 259v630h-146v9h146v165q0 137 106 232q107 94 269 94z" />
    <glyph glyph-name="fi" unicode="fi" horiz-adv-x="1101" 
d="M694 911h-319v-630q0 -232 34 -258q15 -12 58 -15l41 -2v-6h-436v6l41 2q43 2 58 14q34 28 34 259v630h-146v9h146v165q0 137 119 231t297 95q129 0 232 -61t103 -152q0 -45 -30 -74q-30 -28 -75 -28q-46 0 -76 30t-30 68q0 39 23 77t23 52q-1 37 -51 59t-119 21
q-123 0 -185 -51t-61 -172v-260h581v-639q0 -231 34 -258q15 -12 59 -15l41 -2v-6h-437v6l41 2q42 2 58 14q34 27 34 259v358q0 231 -32 259q-17 13 -60 13z" />
    <glyph glyph-name="fl" unicode="fl" horiz-adv-x="1101" 
d="M770 920v204h-14q-39 0 -66 27q-26 27 -26 64t20 71t20 56t-34 41q-35 19 -90 20q-104 0 -154 -51t-51 -172v-260h395zM770 911h-395v-630q0 -232 34 -258q15 -12 58 -15l41 -2v-6h-436v6l41 2q43 2 58 14q34 28 34 259v630h-146v9h146v165q0 137 106 231t269 95
q82 0 149 -31h211v-1099q0 -232 34 -258q15 -12 58 -15l41 -2v-6h-436v6l41 2q43 2 58 14q34 28 34 259v630z" />
    <glyph glyph-name="f_f_i" unicode="ffi" horiz-adv-x="1665" 
d="M770 1085q0 25 2 39q-38 0 -66 27t-28 64t20 71t21 45q0 31 -43 51t-96 21q-104 0 -154 -51t-51 -172v-260h395v165zM1073 0h-436v6l41 2q43 2 58 14q34 28 34 259v630h-395v-630q0 -232 34 -258q15 -12 58 -15l41 -2v-6h-436v6l41 2q43 2 58 14q34 28 34 259v630h-146v9
h146v165q0 137 106 231t269 95q90 0 166 -35t106 -94q123 129 334 129q129 0 232 -61t104 -152q0 -45 -30 -74q-30 -28 -76 -28t-76 30q-58 57 -7 145q23 38 23 52q0 37 -50 59t-120 21q-122 0 -184 -51t-62 -172v-260h582v-639q0 -232 33 -258q15 -12 59 -15l41 -2v-6h-436
v6l41 2q43 2 58 14q32 27 34 259v358q0 230 -33 259q-16 13 -59 13h-320v-630q0 -232 34 -258q15 -12 58 -15l41 -2v-6z" />
    <glyph glyph-name="f_f_l" unicode="ffl" horiz-adv-x="1665" 
d="M1331 920v204h-14q-39 0 -66 27t-27 64t21 71t21 56t-35 41t-90 20q-105 0 -155 -51t-50 -172v-260h395zM766 1085q0 25 2 39q-39 0 -67 27q-27 27 -27 64t20 71t21 45q0 31 -43 51t-97 21q-104 0 -154 -51t-50 -172v-260h395v165zM201 911h-146v9h146v165q0 137 106 231
t268 95q86 0 161 -34t108 -89q106 123 297 123q82 0 149 -31h211v-1099q0 -232 34 -258q15 -12 58 -15l41 -2v-6h-436v6l41 2q43 2 58 14q34 28 34 259v630h-395v-630q0 -232 34 -258q15 -12 58 -15l41 -2v-6h-436v6l41 2q43 2 58 14q34 28 34 259v630h-395v-630
q0 -232 33 -258q15 -12 59 -15l41 -2v-6h-436v6l41 2q43 2 58 14q32 27 34 259v630z" />
    <glyph glyph-name=".notdef" 
d="M860 0h-692v1382h692v-1382zM223 1303v-859l252 -247v125l-168 221v151l414 -411v-125l80 -84v512l-80 80v-156l-414 412v133l168 -111v111z" />
    <glyph glyph-name=".null" horiz-adv-x="0" 
 />
    <glyph glyph-name=".null" horiz-adv-x="0" 
 />
    <glyph glyph-name="nonmarkingreturn" horiz-adv-x="681" 
 />
    <glyph glyph-name="CR" unicode="&#xd;" horiz-adv-x="512" 
 />
    <glyph glyph-name="space" unicode=" " horiz-adv-x="512" 
 />
    <glyph glyph-name="space" unicode="&#xa0;" horiz-adv-x="512" 
 />
    <glyph glyph-name="exclam" unicode="!" horiz-adv-x="512" 
d="M258 508v-125h-8v125q0 156 -46 410t-46 366q0 43 25 70q26 26 71 26t72 -26t26 -70q0 -112 -47 -366t-47 -410zM360 114q0 -50 -28 -82t-75 -32q-46 0 -75 32q-28 32 -28 82t28 81q29 31 75 31t75 -31q28 -31 28 -81z" />
    <glyph glyph-name="quotedbl" unicode="&#x22;" horiz-adv-x="839" 
d="M645 1298l-55 -352h-8l-60 352q-6 35 12 59q18 23 51 23q32 0 49 -22t11 -60zM315 1298l-55 -352h-8l-59 352q-6 35 12 59q18 23 50 23t49 -22t11 -60z" />
    <glyph glyph-name="numbersign" unicode="#" horiz-adv-x="1105" 
d="M428 653l-61 -293h321l60 293h-320zM129 264v96h229l60 293h-289v99h309l56 262h10l-55 -262h319l55 262h11l-56 -262h197v-99h-217l-62 -293h279v-96h-297l-55 -264h-11l56 264h-320l-55 -264h-10l55 264h-209z" />
    <glyph glyph-name="dollar" unicode="$" horiz-adv-x="1040" 
d="M229 835q0 -89 68 -139t197 -88v422q-127 -2 -196 -54t-69 -141zM801 197q0 74 -54 122t-153 76q-29 8 -92 27v-440q115 2 207 52t92 163zM494 -231v204q-152 1 -262 59t-109 136q0 45 30 74q29 28 75 28t76 -30t30 -69q0 -40 -23 -77t-22 -47q0 -25 63 -44t142 -21v442
q-82 23 -132 42q-150 57 -195 154q-28 58 -28 138q-1 128 101 202t254 78v207h8v-207q135 0 250 -60t114 -136q0 -45 -30 -74t-75 -29q-46 0 -76 30t-30 69q0 40 23 76t22 49q0 25 -58 47t-140 20v-424q193 -55 254 -92q135 -80 135 -228t-115 -230q-115 -81 -274 -83v-204
h-8z" />
    <glyph glyph-name="percent" unicode="%" horiz-adv-x="1671" 
d="M1225 -27q-164 0 -263 110q-100 109 -100 263t100 264t263 111q164 0 263 -111q99 -110 99 -264t-99 -264t-263 -109zM1225 -18q207 0 207 366t-207 365q-207 1 -207 -365t207 -366zM416 0h-21l858 1380h21zM444 659q-164 0 -263 111q-99 110 -99 264t99 264t263 109
q164 0 264 -110q100 -109 99 -263q1 -154 -99 -264t-264 -111zM444 668q207 0 207 366t-207 365q-207 1 -207 -365t207 -366z" />
    <glyph glyph-name="ampersand" unicode="&#x26;" horiz-adv-x="1650" 
d="M1321 467q0 -238 -164 -366t-425 -128q-261 1 -415 101t-153 309q0 315 432 379q-170 28 -269 104t-100 201q0 168 129 254q128 86 312 86t273 -62t89 -147q0 -45 -30 -74q-30 -28 -76 -28t-75 30q-30 30 -30 68q0 39 23 76t22 49q0 31 -40 55t-132 25q-132 0 -196 -93
t-64 -268t53 -221q64 -51 191 -51h125v-8h-125q-172 0 -240 -93t-68 -277t91 -296q90 -111 282 -110q139 0 267 57t215 172q86 115 86 260q0 90 -35 182q-23 -8 -65 -21q-41 -12 -63 -20t-58 -20t-54 -20t-45 -21t-40 -23q-52 -42 -52 -82q0 -63 51 -63q20 0 54 27
q34 26 61 26t43 -20t16 -49t-20 -47t-51 -19q-63 0 -116 53q-52 54 -52 120t25 111q45 77 187 133q52 22 186 64t202 82q68 39 67 101q0 33 -18 59t-42 25q-24 0 -48 -27t-54 -27q-28 1 -51 21t-23 52t20 54q19 22 50 21q68 0 123 -65q55 -64 55 -156q1 -171 -280 -267
q39 -96 39 -188z" />
    <glyph glyph-name="quotesingle" unicode="'" horiz-adv-x="512" 
d="M315 1298l-55 -352h-8l-59 352q-6 35 12 59q18 23 50 23t49 -22t11 -60z" />
    <glyph glyph-name="parenleft" unicode="(" horiz-adv-x="628" 
d="M94 478q0 181 45 337q45 155 121 263q147 208 330 302h8q-158 -106 -256 -330t-98 -572t98 -575q98 -226 256 -329h-8q-182 98 -327 302q-77 108 -123 264t-46 338z" />
    <glyph glyph-name="parenright" unicode=")" horiz-adv-x="628" 
d="M211 -305q-82 -74 -172 -121h-8q158 106 256 330t98 573t-98 575t-256 328h8q88 -47 169 -119q327 -295 327 -786q0 -492 -324 -780z" />
    <glyph glyph-name="asterisk" unicode="*" horiz-adv-x="878" 
d="M510 1384l-66 -329l299 157l43 -135l-340 -39l265 -250l-119 -81l-154 317l-153 -317l-119 81l264 250l-340 39l43 135l299 -157l-65 329h143z" />
    <glyph glyph-name="plus" unicode="+" 
d="M567 47h-112v414h-414v112h414v416h112v-416h416v-112h-416v-414z" />
    <glyph glyph-name="comma" unicode="," horiz-adv-x="512" 
d="M145 132q0 40 25 67t74 27t89 -50q40 -49 40 -148q-1 -99 -61 -165t-197 -66v8q113 1 173 51t60 138q0 59 -49 59l-59 -10q-45 0 -70 24q-25 25 -25 65z" />
    <glyph glyph-name="hyphen" unicode="-" horiz-adv-x="512" 
d="M471 416h-430v121h430v-121z" />
    <glyph glyph-name="period" unicode="." horiz-adv-x="512" 
d="M367 114q0 -50 -29 -82t-75 -32t-75 32q-28 32 -28 82t28 81q29 31 75 31t75 -32q29 -30 29 -80z" />
    <glyph glyph-name="slash" unicode="/" horiz-adv-x="688" 
d="M78 0h-21l551 1380h21z" />
    <glyph glyph-name="zero" unicode="0" horiz-adv-x="1183" 
d="M1102 508q0 -219 -138 -377t-372 -158t-372 158t-138 377t138 376q138 156 372 156t372 -156q138 -157 138 -376zM592 -18q305 0 305 525t-305 525t-305 -525t305 -525z" />
    <glyph glyph-name="one" unicode="1" horiz-adv-x="587" 
d="M383 760v-479q0 -232 34 -258q15 -12 58 -15l62 -2v-6h-486v6l62 2q43 2 58 14q34 28 34 259v479q0 230 -34 258q-15 12 -58 14l-62 2v6h486v-6l-62 -2q-43 -2 -58 -14q-34 -27 -34 -258z" />
    <glyph glyph-name="two" unicode="2" horiz-adv-x="1136" 
d="M705 150q229 0 258 33q12 15 14 59l2 41h6v-283h-911v18l325 211q100 66 163 127q101 99 120 239q6 44 6 120q0 317 -227 317q-84 0 -125 -26t-41 -56q1 -12 23 -49t22 -76t-30 -69t-76 -29q-46 0 -75 29q-30 29 -30 73q0 87 95 149t257 62t287 -85t125 -236
q0 -85 -30 -134t-47 -75t-60 -62q-43 -34 -69 -56t-109 -74t-166 -100q-82 -48 -115 -68h408z" />
    <glyph glyph-name="three" unicode="3" horiz-adv-x="1134" 
d="M468 -393q-202 0 -295 62t-93 147q0 46 30 74t76 28t75 -30q30 -30 30 -70t-23 -76q-22 -37 -22 -51q1 -39 62 -57q61 -19 134 -19q319 0 320 391q0 186 -68 276t-239 89h-187v8h187q130 0 182 48t59 158q2 34 2 103q0 150 -64 247q-65 97 -196 97q-92 0 -132 -24
t-40 -56q0 -10 23 -47t23 -77t-30 -70t-76 -29q-46 0 -76 29t-30 73q0 85 89 147t271 62t313 -91q130 -91 130 -259q0 -125 -100 -207t-268 -108q211 -31 321 -119t111 -250q0 -195 -149 -297q-148 -102 -350 -102z" />
    <glyph glyph-name="four" unicode="4" horiz-adv-x="1185" 
d="M674 98v740l-576 -740h576zM848 -367h-174v457h-586v8l731 942h29v-942h227v-8h-227v-457z" />
    <glyph glyph-name="five" unicode="5" horiz-adv-x="1077" 
d="M182 1014h361q190 0 244 19t63 79l6 41h6l-37 -285q-135 14 -338 15h-297v-529q66 36 97 52q93 47 219 49q207 0 339 -118q132 -117 132 -311t-151 -307t-346 -113t-289 63q-93 62 -93 147q0 46 30 74t76 28t76 -30q59 -59 7 -146q-23 -37 -23 -51q0 -38 62 -57t135 -19
q311 0 311 405q0 221 -121 347q-70 71 -176 71t-190 -41q-31 -14 -95 -49l-8 4v662z" />
    <glyph glyph-name="six" unicode="6" horiz-adv-x="1230" 
d="M651 844q-184 0 -315 -142v-133q0 -232 57 -396q31 -89 91 -141t143 -52q266 0 266 444q0 127 -19 214q-18 86 -74 146t-149 60zM664 864q194 0 314 -116t120 -315q0 -198 -134 -329t-341 -131q-129 1 -225 53t-153 143q-112 182 -112 449q0 390 173 615q134 174 400 174
q142 0 237 -65t95 -140q0 -40 -26 -66t-68 -26q-40 0 -68 27t-28 63t20 69q20 34 20 47t-20 32q-58 51 -198 51q-82 0 -153 -50q-168 -118 -181 -632q133 147 328 147z" />
    <glyph glyph-name="seven" unicode="7" horiz-adv-x="1030" 
d="M86 737v277h856v-29l-248 -479q-90 -176 -119 -347t-28 -427q0 -41 -29 -69t-71 -28q-41 0 -69 28t-28 69q0 108 36 220t78 186t114 190q72 117 104 180l195 364l-510 -2q-232 0 -258 -33q-12 -15 -15 -59l-2 -41h-6z" />
    <glyph glyph-name="eight" unicode="8" horiz-adv-x="1224" 
d="M609 -27q-208 0 -347 108t-139 288q0 139 101 238t304 126q-170 15 -265 109t-95 209q0 164 129 260t311 96t312 -96t129 -260q0 -117 -84 -202t-267 -116q203 -29 303 -127t101 -237q0 -180 -142 -288t-351 -108zM608 729q-150 0 -218 -105q-68 -104 -68 -272t74 -269
t211 -101q138 0 214 101t76 263q0 383 -289 383zM610 737q139 0 192 76q52 76 52 250t-56 255t-188 81t-186 -80q-55 -80 -55 -256t51 -251t190 -75z" />
    <glyph glyph-name="nine" unicode="9" horiz-adv-x="1230" 
d="M580 170q182 0 313 139q2 45 2 147q0 220 -57 385q-32 89 -92 141t-142 52q-266 0 -266 -444q0 -127 18 -214q18 -86 74 -146t150 -60zM560 -385q82 0 153 50q69 51 107 149q62 163 73 481q-131 -145 -326 -145t-315 116t-119 314q0 198 134 329t341 131q130 0 226 -52
t152 -143q112 -182 112 -450q0 -389 -173 -614q-135 -174 -401 -174q-142 1 -236 65q-95 64 -95 140q1 40 27 66t67 26t69 -27t27 -63t-21 -69q-20 -34 -20 -47t20 -32q56 -51 198 -51z" />
    <glyph glyph-name="colon" unicode=":" horiz-adv-x="512" 
d="M362 114q0 -50 -28 -82t-75 -32q-46 0 -75 32q-28 32 -28 82t28 81q29 31 75 31t75 -31q28 -31 28 -81zM259 920q47 0 75 -31t28 -81t-28 -82t-75 -32q-46 0 -75 32q-28 32 -28 82t28 81q29 31 75 31z" />
    <glyph glyph-name="semicolon" unicode=";" horiz-adv-x="512" 
d="M145 134q0 40 25 67t74 27t89 -50q40 -49 40 -148q-1 -99 -61 -165t-197 -66v8q113 1 173 51t60 138q0 59 -49 59l-59 -10q-45 0 -70 24q-25 25 -25 65zM249 918q47 0 75 -31t28 -81t-28 -82t-75 -32q-46 0 -75 32t-29 82t29 81t75 31z" />
    <glyph glyph-name="less" unicode="&#x3c;" 
d="M860 0h-692v1382h692v-1382zM223 1303v-859l252 -247v125l-168 221v151l414 -411v-125l80 -84v512l-80 80v-156l-414 412v133l168 -111v111z" />
    <glyph glyph-name="equal" unicode="=" 
d="M983 666h-942v112h942v-112zM983 256h-942v113h942v-113z" />
    <glyph glyph-name="greater" unicode="&#x3e;" 
d="M860 0h-692v1382h692v-1382zM223 1303v-859l252 -247v125l-168 221v151l414 -411v-125l80 -84v512l-80 80v-156l-414 412v133l168 -111v111z" />
    <glyph glyph-name="question" unicode="?" horiz-adv-x="899" 
d="M471 114q0 -50 -29 -82q-28 -32 -74 -32t-75 32t-29 82t29 81t75 31t74 -32q28 -30 29 -80zM388 1407q154 0 278 -88q125 -88 125 -256q1 -135 -97 -226t-305 -190q-67 -31 -93 -61t-26 -80q0 -51 48 -81t116 -30h23v-8h-23q-68 0 -121 31t-53 86t29 87q29 31 95 63
q131 63 167 168q35 105 35 235q0 342 -230 342q-72 0 -110 -27t-39 -55q1 -10 23 -47t22 -77t-30 -70q-30 -29 -76 -29t-75 28q-30 28 -30 74q0 88 96 150q97 61 251 61z" />
    <glyph glyph-name="at" unicode="@" horiz-adv-x="1605" 
d="M1161 346q1 -137 17 -193t69 -57q82 0 151 111q68 111 68 305t-56 332t-149 222q-189 169 -449 169q-259 0 -432 -194t-173 -545q0 -350 167 -556t470 -206t497 182l7 -8q-192 -184 -518 -184t-515 209q-188 210 -188 552q0 205 77 374t238 277q162 108 383 107
q311 0 495 -195q183 -196 183 -513q0 -193 -81 -321t-195 -128q-170 0 -215 133q-90 -147 -242 -147t-238 63t-86 174q0 223 342 223q121 0 220 -45v252q0 199 -203 199q-139 0 -139 -51q0 -10 20 -44q48 -81 -7 -132q-28 -27 -69 -27q-42 0 -68 26t-26 66q0 74 76 122
t217 48t247 -76t105 -215v-309zM618 299q0 -203 189 -203q59 0 115 38q55 38 86 97v246q-100 45 -195 45q-195 0 -195 -223z" />
    <glyph glyph-name="A" unicode="A" horiz-adv-x="1382" 
d="M606 1198l-235 -616h473zM426 0h-416v6l23 2q47 4 77 30q61 53 209 433l357 930h22l432 -1057q90 -221 126 -275t116 -63v-6h-489v6l53 2q84 2 85 58t-81 268l-92 239h-481l-39 -102q-60 -153 -60 -265t24 -153t91 -45l43 -2v-6z" />
    <glyph glyph-name="B" unicode="B" horiz-adv-x="1396" 
d="M412 1063v-350h254q128 0 206 84t78 249q0 166 -77 246t-189 80h-176q-68 0 -82 -49t-14 -260zM412 705v-388q0 -211 14 -260t82 -49h170q348 0 348 346q0 168 -90 259t-268 92h-256zM63 0v6l43 2q55 2 77 22q42 37 42 287v746q0 250 -42 288q-22 19 -77 21l-43 2v6h621
q211 0 342 -83t131 -236t-124 -237t-304 -115q184 -21 326 -92q82 -39 130 -111t48 -166q0 -174 -150 -257t-405 -83h-615z" />
    <glyph glyph-name="C" unicode="C" horiz-adv-x="1396" 
d="M1233 -27h-4q-88 113 -148 113q-27 0 -73 -33q-119 -80 -252 -80q-205 1 -355 105t-219 263q-70 159 -70 348q1 411 289 614q150 104 355 104q135 0 239 -70q41 -29 66 -28q45 0 127 98h4v-397h-6l-23 69q-45 139 -148 229t-239 91t-223 -59q-154 -104 -205 -374t-2 -538
q85 -446 414 -446q94 0 174 38t132 102q102 123 138 240l23 70h6v-459z" />
    <glyph glyph-name="D" unicode="D" horiz-adv-x="1519" 
d="M696 1372h-227q-68 0 -82 -49t-14 -260v-746q0 -211 14 -260t82 -49h227q166 0 278 100q204 183 204 582t-216 586q-112 96 -266 96zM25 0v6l43 2q54 2 76 22q42 38 42 287v746q0 250 -42 288q-22 19 -76 21l-43 2v6h671q328 0 510 -196t182 -491q0 -297 -186 -495
t-504 -198h-673z" />
    <glyph glyph-name="E" unicode="E" horiz-adv-x="1282" 
d="M801 475h-6l-13 45q-32 121 -108 157q-57 26 -146 28h-116v-388q0 -211 14 -260t82 -49h154q112 0 178 22q148 50 239 332l23 70h6v-432h-1045v6l43 2q55 2 77 22q42 37 42 287v746q0 250 -42 288q-22 19 -77 21l-43 2v6h1004v-370h-6l-23 69q-61 189 -173 246
q-56 29 -110 38t-134 9h-113q-68 0 -82 -49t-14 -260v-350h116q153 0 210 84q28 39 44 100l13 45h6v-467z" />
    <glyph glyph-name="F" unicode="F" horiz-adv-x="1251" 
d="M635 0h-572v6l43 2q55 2 77 22q42 37 42 287v746q0 250 -42 288q-22 19 -77 21l-43 2v6h1045v-411h-6l-23 69q-39 117 -81 187q-42 71 -99 101t-105 38t-132 8h-154q-68 0 -82 -49t-14 -260v-391h157q153 0 210 84q28 39 44 100l13 45h6v-508h-6l-13 45q-27 98 -70 151
q-44 52 -83 63t-101 12h-157v-347q0 -113 4 -167t26 -89q23 -35 53 -42t97 -11l43 -2v-6z" />
    <glyph glyph-name="G" unicode="G" horiz-adv-x="1421" 
d="M1047 340q0 113 -5 167q-4 54 -28 89q-25 35 -59 42t-109 11l-43 2v6h592v-6l-43 -2q-55 -2 -77 -21q-42 -36 -42 -288v-367h-4q-88 113 -148 113q-27 0 -73 -33q-119 -80 -273 -80q-205 1 -355 105t-218 263q-70 159 -70 348t70 349t219 265q150 104 354 104
q135 0 240 -70q41 -29 65 -28q45 0 127 98h4v-397h-6l-22 69q-45 139 -149 229t-238 91q-136 1 -224 -59q-155 -105 -206 -388q-23 -121 -23 -262q0 -282 93 -486q103 -222 356 -222q132 0 243 79q35 25 43 56t9 114v109z" />
    <glyph glyph-name="H" unicode="H" horiz-adv-x="1595" 
d="M1370 1063v-746q0 -249 42 -287q22 -19 77 -22l43 -2v-6h-510v6l43 2q55 2 77 22q42 37 42 287v388h-772v-388q0 -249 42 -287q22 -19 76 -22l43 -2v-6h-510v6l43 2q55 2 77 22q42 37 42 287v746q0 250 -42 288q-22 19 -77 21l-43 2v6h510v-6l-43 -2q-54 -2 -76 -21
q-42 -37 -42 -288v-350h772v350q0 250 -42 288q-22 19 -77 21l-43 2v6h510v-6l-43 -2q-55 -2 -77 -21q-42 -36 -42 -288z" />
    <glyph glyph-name="I" unicode="I" horiz-adv-x="636" 
d="M412 1063v-746q0 -249 42 -287q22 -19 76 -22l43 -2v-6h-510v6l43 2q55 2 77 22q42 37 42 287v746q0 250 -42 288q-22 19 -77 21l-43 2v6h510v-6l-43 -2q-54 -2 -76 -21q-42 -37 -42 -288z" />
    <glyph glyph-name="J" unicode="J" horiz-adv-x="1048" 
d="M823 1063v-602q1 -211 -113 -349t-348 -139q-154 0 -234 65t-79 148q0 47 31 78t79 31t80 -31q62 -60 8 -159q-24 -42 -24 -58q0 -15 6 -29q16 -35 111 -36q163 0 230 95q53 75 64 230q3 55 3 137v619q0 250 -42 288q-22 19 -77 21l-43 2v6h510v-6l-43 -2q-55 -2 -77 -21
q-42 -36 -42 -288z" />
    <glyph glyph-name="K" unicode="K" horiz-adv-x="1400" 
d="M1372 0h-340q-42 86 -70 140t-81 154q-149 284 -222 345q-53 45 -157 45h-90v-367q0 -249 42 -287q22 -19 76 -22l43 -2v-6h-510v6l43 2q55 2 77 22q42 37 42 287v746q0 250 -42 288q-22 19 -77 21l-43 2v6h510v-6l-43 -2q-54 -2 -76 -21q-42 -37 -42 -288v-371h41
q61 0 113 41t194 191l65 69q158 170 158 289q2 84 -86 90l-43 2v6h539v-6l-43 -2q-84 -4 -194 -80t-322 -299l-68 -71q-4 -4 -46 -50t-93 -94q-77 -75 -127 -88q342 0 514 -280q161 -277 215 -338q55 -62 106 -64l37 -2v-6z" />
    <glyph glyph-name="L" unicode="L" horiz-adv-x="1241" 
d="M412 1063v-746q0 -211 14 -260t82 -49h164q111 0 174 26q134 55 244 390l22 70h6v-494h-1055v6l43 2q55 2 77 22q42 37 42 287v746q0 250 -42 288q-22 19 -77 21l-43 2v6h510v-6l-43 -2q-54 -2 -76 -21q-42 -37 -42 -288z" />
    <glyph glyph-name="M" unicode="M" horiz-adv-x="1734" 
d="M244 492v571q0 252 -60 290q-27 17 -84 19l-37 2v6h347l499 -796l441 796h321v-6l-43 -2q-55 -2 -77 -21q-21 -19 -31 -81t-11 -207v-746q0 -247 42 -287q22 -19 77 -22l43 -2v-6h-510v6l43 2q55 2 77 22q42 37 42 287v1002l-498 -909h-26l-547 858v-776q0 -146 36 -262
q68 -218 177 -222l43 -2v-6h-445v6l23 2q84 8 121 126t37 358z" />
    <glyph glyph-name="N" unicode="N" horiz-adv-x="1597" 
d="M1346 889q0 143 -36 260t-79 169t-98 54l-43 2v6h444v-6l-23 -2q-85 -8 -121 -126t-36 -357v-907h-29l-1073 1275v-765q0 -146 36 -262q68 -218 177 -222l43 -2v-6h-445v6l23 2q84 8 121 126t37 358v571q0 252 -60 290q-27 17 -84 19l-37 2v6h338l945 -1144v653z" />
    <glyph glyph-name="O" unicode="O" horiz-adv-x="1536" 
d="M1444 692q0 -297 -182 -508t-494 -211t-494 211t-182 508t182 506t494 209t494 -209t182 -506zM1134 198q99 192 99 488t-99 496q-52 102 -146 159t-220 57q-127 0 -220 -56q-169 -104 -221 -383q-24 -122 -24 -268q0 -294 99 -492q52 -101 146 -159t220 -58
q127 0 220 57t146 159z" />
    <glyph glyph-name="P" unicode="P" horiz-adv-x="1312" 
d="M412 592h323q248 0 248 369q0 228 -105 345q-60 67 -151 66h-219q-68 0 -82 -49t-14 -260v-471zM735 584h-323v-267q0 -113 4 -167t26 -89q23 -35 53 -42t97 -11l43 -2v-6h-572v6l43 2q55 2 77 22q42 37 42 287v746q0 250 -42 288q-22 19 -77 21l-43 2v6h664
q217 0 350 -116t133 -293q0 -179 -123 -283t-352 -104z" />
    <glyph glyph-name="Q" unicode="Q" horiz-adv-x="1536" 
d="M768 -18q66 0 127 16q-29 55 -59 114t-63 91q-69 65 -132 65q-141 0 -149 -186q110 -100 276 -100zM1233 690q0 292 -99 492q-52 102 -146 159t-220 57q-127 0 -220 -56q-169 -104 -221 -383q-24 -122 -24 -269q0 -428 182 -602q10 205 191 205q132 0 258 -149
q27 -32 72 -91q227 158 227 637zM1444 692q0 -225 -109 -408t-305 -261q55 -72 93 -113q37 -41 99 -77t126 -36q156 0 155 187h10q1 -150 -65 -244t-174 -94q-138 0 -230 111q-48 59 -74 103t-67 126q-63 -12 -135 -13q-311 0 -494 211q-182 211 -182 508t182 506t494 209
t494 -209t182 -506z" />
    <glyph glyph-name="R" unicode="R" horiz-adv-x="1409" 
d="M1413 0h-340q-41 86 -69 140t-82 154q-151 288 -222 346q-53 44 -157 44h-131v-367q0 -249 42 -287q22 -19 76 -22l43 -2v-6h-510v6l43 2q55 2 77 22q42 37 42 287v746q0 250 -42 288q-22 19 -77 21l-43 2v6h676q195 0 323 -91t128 -257q0 -110 -69 -190
q-145 -169 -492 -158q170 -43 263 -104t163 -170q161 -277 215 -338q55 -62 106 -64l37 -2v-6zM412 692h325q139 0 192 89q52 89 52 251t-63 251t-179 89h-231q-68 0 -82 -49t-14 -260v-371z" />
    <glyph glyph-name="S" unicode="S" horiz-adv-x="1345" 
d="M326 84q-57 0 -144 -111h-4v459h6l25 -76q86 -256 281 -340q83 -35 184 -34q145 0 232 68t87 192q0 126 -78 206q-77 80 -189 132l-224 104q-112 53 -189 143q-78 90 -77 217q0 160 116 262q117 101 287 101q127 0 233 -70q41 -29 68 -28q45 0 125 98h4v-397h-6l-23 71
q-45 150 -153 234q-109 84 -239 84q-130 -1 -200 -61t-69 -155q0 -177 152 -275q69 -44 221 -118t232 -131q163 -117 163 -297t-133 -284t-338 -105q-152 0 -275 80q-45 31 -75 31z" />
    <glyph glyph-name="T" unicode="T" horiz-adv-x="1290" 
d="M899 0h-510v6l43 2q55 2 77 22q42 37 42 287v746q0 211 -14 260t-82 49h-54q-138 0 -229 -147q-45 -74 -82 -187l-22 -69h-7v411h1166v-411h-6l-23 69q-75 229 -173 289q-71 45 -138 45h-53q-68 0 -82 -49t-15 -260v-746q0 -247 42 -287q22 -19 77 -22l43 -2v-6z" />
    <glyph glyph-name="U" unicode="U" horiz-adv-x="1595" 
d="M1341 457v432q0 145 -36 261t-78 168q-43 52 -99 54l-43 2v6h447v-6l-23 -2q-160 -14 -159 -483v-432q0 -215 -146 -347t-407 -132q-260 0 -416 128q-156 129 -156 351v606q0 250 -42 288q-22 19 -77 21l-43 2v6h510v-6l-43 -2q-54 -2 -76 -21q-42 -37 -42 -288v-604
q0 -209 118 -329t341 -120q222 0 347 126q123 126 123 321z" />
    <glyph glyph-name="V" unicode="V" horiz-adv-x="1382" 
d="M1114 1208q0 78 -23 119q-24 41 -92 45l-43 2v6h416v-6l-22 -2q-47 -4 -77 -30q-64 -55 -210 -433l-356 -929h-23l-432 1056q-90 221 -126 275t-116 63v6h490v-6l-54 -2q-47 -2 -67 -18q-37 -30 2 -141q39 -112 50 -134t12 -26t3 -6l336 -848l273 710q59 154 59 299z" />
    <glyph glyph-name="W" unicode="W" horiz-adv-x="1925" 
d="M1657 1168q0 118 -24 159t-91 45l-43 2v6h406v-6l-23 -2q-45 -4 -73 -24q-27 -20 -75 -126t-106 -313l-262 -934h-27l-399 1170l-381 -1170h-27l-301 1061q-61 216 -95 272t-99 64l-17 2v6h480v-6l-43 -2q-47 -2 -70 -17q-45 -29 -14 -154q12 -52 41 -154l227 -789
l373 1147h28l392 -1159l184 663q39 141 39 259z" />
    <glyph glyph-name="X" unicode="X" horiz-adv-x="1396" 
d="M322 113q0 -51 16 -77t65 -28l43 -2v-6h-426v6l23 2q59 4 157 110t298 382l114 159l-264 377q-145 207 -198 268t-127 70v6h485v-6l-43 -2q-49 -4 -65 -23q-30 -35 54 -163q30 -47 95 -139l192 -275l80 115q184 260 185 381q0 51 -16 77t-66 27l-43 2v6h426v-6l-23 -2
q-61 -4 -163 -111q-101 -108 -292 -380l-81 -117l294 -420q142 -206 200 -270t118 -66l16 -2v-6h-485v6l43 2q88 4 59 82q-20 54 -151 244l-224 317l-112 -157q-184 -260 -184 -381z" />
    <glyph glyph-name="Y" unicode="Y" horiz-adv-x="1314" 
d="M1024 1231q0 65 -24 101t-91 40l-43 2v6h447v-6l-43 -2q-56 -2 -118 -82t-257 -385l-147 -227v-361q0 -249 42 -287q22 -19 76 -22l43 -2v-6h-510v6l43 2q55 2 77 22q42 37 42 287v355l-237 364q-48 69 -112 175q-64 105 -99 129q-10 8 -26 20t-48 12l-37 2v6h506v-6
l-43 -2q-88 -6 -72 -80q14 -57 131 -245l219 -357l144 219q137 209 137 322z" />
    <glyph glyph-name="Z" unicode="Z" horiz-adv-x="1269" 
d="M631 1372q-84 0 -132 -8q-134 -22 -205 -139q-42 -70 -81 -187l-23 -69h-6v411h922v-26l-774 -1346h373q165 0 253 67t160 287l23 70h6v-432h-1004v27l756 1345h-268z" />
    <glyph glyph-name="bracketleft" unicode="[" horiz-adv-x="628" 
d="M428 -418h160v-8h-410v1806h410v-8h-160q-68 0 -82 -49t-14 -260v-1172q0 -211 14 -260t82 -49z" />
    <glyph glyph-name="backslash" unicode="\" horiz-adv-x="688" 
d="M631 0h-21l-551 1380h21z" />
    <glyph glyph-name="bracketright" unicode="]" horiz-adv-x="628" 
d="M201 1372h-160v8h410v-1806h-410v8h160q68 0 82 49t14 260v1172q0 211 -14 260t-82 49z" />
    <glyph glyph-name="asciicircum" unicode="^" 
d="M860 0h-692v1382h692v-1382zM223 1303v-859l252 -247v125l-168 221v151l414 -411v-125l80 -84v512l-80 80v-156l-414 412v133l168 -111v111z" />
    <glyph glyph-name="underscore" unicode="_" 
d="M1024 -426h-1024v20h1024v-20z" />
    <glyph glyph-name="grave" unicode="`" 
d="M666 997h-9l-299 383h158z" />
    <glyph glyph-name="grave" unicode="&#x300;" 
d="M666 997h-9l-299 383h158z" />
    <glyph glyph-name="grave" unicode="&#x2cb;" 
d="M666 997h-9l-299 383h158z" />
    <glyph glyph-name="a" unicode="a" horiz-adv-x="1036" 
d="M1012 0h-299v141q-98 -164 -281 -164q-154 0 -249 70t-95 193q0 246 379 245q129 0 242 -49v281q1 107 -57 163t-169 56q-154 0 -153 -57q0 -13 22 -49t23 -76q0 -40 -30 -69q-30 -30 -76 -30q-45 0 -75 29t-30 74q0 80 85 133t241 53t272 -83q117 -83 117 -238v-342
q0 -232 33 -258q15 -12 59 -15l41 -2v-6zM279 229q0 -227 208 -227q66 0 126 42t96 108v274q-104 49 -215 49q-215 0 -215 -246z" />
    <glyph glyph-name="b" unicode="b" horiz-adv-x="1103" 
d="M352 1380v-460q88 25 178 24q230 0 366 -136t136 -339q0 -159 -77 -269q-140 -199 -437 -200h-469v6l41 2q43 2 58 14q34 28 34 259v819q0 230 -34 258q-15 12 -58 14l-41 2v6h303zM834 469q0 467 -304 467q-90 0 -178 -27v-901h168q154 0 234 134t80 327z" />
    <glyph glyph-name="c" unicode="c" horiz-adv-x="995" 
d="M340 838q-72 -98 -72 -363q0 -266 77 -372q32 -45 90 -75t138 -30q264 0 324 246l10 -2q-59 -268 -375 -269q-216 1 -338 143t-122 346t123 343t358 139q154 0 244 -66t90 -147q0 -47 -31 -78t-79 -31t-80 32q-62 59 -8 158q24 42 24 54q0 70 -150 70q-151 0 -223 -98z
" />
    <glyph glyph-name="d" unicode="d" horiz-adv-x="1103" 
d="M922 1380v-1099q0 -232 33 -258q15 -12 59 -15l41 -2v-6h-473q-217 0 -364 117q-146 117 -146 336t136 355t365 136q90 0 179 -24v180q0 229 -34 258q-15 12 -59 14l-41 2v6h304zM270 469q0 -193 78 -327t232 -134h172v901q-98 27 -179 27q-303 0 -303 -467z" />
    <glyph glyph-name="e" unicode="e" horiz-adv-x="1038" 
d="M506 936q-140 0 -188 -99t-50 -307h457q0 297 -101 372q-46 34 -118 34zM72 457q0 239 124 363t322 124t299 -114q100 -114 101 -308h-650v-49q0 -341 144 -433q66 -42 166 -42q268 0 327 246l10 -2q-59 -268 -378 -269q-217 -1 -341 143t-124 341z" />
    <glyph glyph-name="f" unicode="f" horiz-adv-x="681" 
d="M59 920h146v165q0 145 85 233t215 89q131 0 199 -53t68 -133q0 -45 -30 -74t-76 -29t-75 30q-30 30 -30 70t23 76t22 47q0 57 -86 57t-116 -47q-30 -48 -29 -171v-260h235v-9h-235v-630q0 -230 39 -257q18 -13 73 -16l62 -2v-6h-477v6l41 2q43 2 58 14q34 28 34 259v630
h-146v9z" />
    <glyph glyph-name="g" unicode="g" horiz-adv-x="1103" 
d="M922 639v-655q0 -410 -447 -410q-156 0 -255 65t-99 144q0 47 30 77q31 30 75 30t74 -30t30 -71t-23 -78t-22 -57q0 -28 49 -50t141 -22q170 0 223 95t54 307v16q-88 -25 -179 -25q-229 1 -365 137t-136 356t150 336t362 116h471v-7l-41 -2q-42 -2 -58 -14
q-34 -26 -34 -258zM270 451q0 -467 303 -467q80 0 179 26v901h-170q-154 1 -233 -133t-79 -327z" />
    <glyph glyph-name="h" unicode="h" horiz-adv-x="1134" 
d="M182 281v819q0 230 -34 258q-15 12 -58 14l-41 2v6h303v-598q98 162 277 162q143 0 245 -88t103 -240v-335q0 -232 34 -258q15 -12 58 -15l41 -2v-6h-436v6l41 2q43 2 58 14q34 28 34 259v337q0 152 -57 227t-154 75q-158 0 -244 -152v-487q0 -232 34 -258q15 -12 58 -15
l41 -2v-6h-436v6l41 2q43 2 58 14q34 28 34 259z" />
    <glyph glyph-name="i" unicode="i" horiz-adv-x="497" 
d="M362 1282q0 -47 -28 -76q-28 -28 -69 -28t-69 28t-28 76q0 47 28 76q28 28 68 28t70 -28q28 -29 28 -76zM352 920v-639q0 -232 34 -258q15 -12 58 -15l41 -2v-6h-436v6l41 2q43 2 58 14q34 28 34 259v358q0 230 -34 258q-15 12 -58 14l-41 2v7h303z" />
    <glyph glyph-name="j" unicode="j" horiz-adv-x="497" 
d="M362 1282q0 -47 -28 -76q-28 -28 -69 -28t-69 28t-28 76q0 47 28 76q28 28 68 28t70 -28q28 -29 28 -76zM352 920v-1024q0 -142 -83 -232t-214 -90q-92 0 -149 50t-58 124q0 41 27 67q27 25 68 25t69 -26t27 -63q-1 -35 -21 -69t-20 -44q0 -56 64 -56t93 50q28 50 27 169
v838q0 230 -34 258q-15 12 -58 14l-41 2v7h303z" />
    <glyph glyph-name="k" unicode="k" horiz-adv-x="1046" 
d="M352 1380v-899h21q41 0 85 36t124 122l24 27q47 49 72 106t17 97q-7 40 -44 42l-28 2v7h340v-7l-29 -2q-47 -4 -114 -53t-208 -199l-24 -26q-133 -139 -178 -154q126 0 192 -56t102 -103q37 -47 107 -147q111 -159 162 -165l24 -2v-6h-272q-39 82 -57 115
q-74 123 -102 165t-61 97q-42 68 -67 82q-24 14 -53 14h-33v-192q0 -232 34 -258q15 -12 58 -15l41 -2v-6h-436v6l41 2q43 2 58 14q34 28 34 259v819q0 230 -34 258q-15 12 -58 14l-41 2v6h303z" />
    <glyph glyph-name="l" unicode="l" horiz-adv-x="497" 
d="M334 1380v-1099q0 -232 34 -258q15 -12 58 -15l41 -2v-6h-436v6l41 2q43 2 58 14q34 28 34 259v819q0 230 -34 258q-15 12 -58 14l-41 2v6h303z" />
    <glyph glyph-name="m" unicode="m" horiz-adv-x="1777" 
d="M182 281v358q0 230 -34 258q-15 12 -58 14l-41 2v7h299v-142q100 166 285 166q113 0 203 -52t127 -147q98 199 303 199q146 0 250 -87t104 -241v-335q0 -232 34 -258q15 -12 58 -15l41 -2v-6h-436v6l41 2q43 2 58 14q34 28 34 259v337q0 152 -58 227t-159 75
q-178 0 -266 -187q20 -57 20 -117v-335q0 -232 34 -258q15 -12 58 -15l41 -2v-6h-436v6l41 2q43 2 58 14q34 28 34 259v337q0 152 -58 227t-159 75q-162 0 -248 -152v-487q0 -232 34 -258q15 -12 58 -15l41 -2v-6h-436v6l41 2q43 2 58 14q34 28 34 259z" />
    <glyph glyph-name="n" unicode="n" horiz-adv-x="1161" 
d="M182 281v358q0 230 -34 258q-15 12 -58 14l-41 2v7h299v-142q104 164 291 164q154 0 259 -86t106 -240v-335q0 -232 33 -258q15 -12 59 -15l41 -2v-6h-437v6l41 2q43 2 59 14q33 26 34 259v337q0 152 -62 226t-166 74q-166 0 -254 -150v-487q0 -232 34 -258
q15 -12 58 -15l41 -2v-6h-436v6l41 2q43 2 58 14q34 28 34 259z" />
    <glyph glyph-name="o" unicode="o" horiz-adv-x="1069" 
d="M999 459q0 -201 -126 -343q-125 -142 -337 -142t-338 142q-126 144 -126 345t126 342t338 141t338 -142t125 -343zM799 457q1 225 -57 352t-208 127t-206 -125q-57 -125 -58 -352q0 -350 133 -442q53 -36 132 -35q150 0 207 125t57 350z" />
    <glyph glyph-name="p" unicode="p" horiz-adv-x="1103" 
d="M352 -145q0 -232 34 -258q15 -12 58 -15l41 -2v-6h-436v6l41 2q43 2 58 14q34 28 34 259v784q0 230 -34 258q-15 12 -58 14l-41 2v7h471q298 0 436 -200q76 -110 76 -269q0 -201 -137 -338t-365 -138q-90 0 -178 25v-145zM834 451q0 193 -79 327t-233 133h-170v-901
q98 -27 178 -26q304 0 304 467z" />
    <glyph glyph-name="q" unicode="q" horiz-adv-x="1103" 
d="M752 -145v147q-94 -27 -179 -27q-229 1 -365 137t-136 339q0 159 76 269q136 197 436 200h471v-7l-41 -2q-42 -2 -58 -14q-34 -26 -34 -258v-784q0 -232 33 -258q15 -12 59 -15l41 -2v-6h-437v6l41 2q43 2 59 14q34 28 34 259zM270 451q0 -467 303 -467q80 0 179 26v901
h-170q-154 1 -233 -133t-79 -327z" />
    <glyph glyph-name="r" unicode="r" horiz-adv-x="770" 
d="M631 903q0 33 -60 33q-137 0 -219 -168v-487q0 -230 39 -257q18 -13 74 -16l61 -2v-6h-477v6l41 2q43 2 58 14q34 28 34 259v358q0 230 -34 258q-15 12 -58 14l-41 2v7h299v-142q84 166 230 166q74 0 126 -44t52 -106t-30 -90q-30 -26 -72 -26t-70 27t-29 69q0 42 38 78
q38 35 38 51z" />
    <glyph glyph-name="s" unicode="s" horiz-adv-x="856" 
d="M639 153q0 81 -53 130t-129 79t-151 67t-128 103t-53 168t80 174q80 70 182 70t176 -47q27 -18 49 -18t76 65h6v-268h-10l-14 47q-31 101 -103 157q-71 56 -159 56t-134 -40t-47 -112t53 -122t131 -82q77 -33 153 -70t129 -107q55 -69 55 -177t-92 -180t-210 -73
q-118 0 -208 54q-41 23 -52 22q-37 0 -96 -76h-8v310h12l15 -47q33 -104 109 -180q76 -74 190 -74t173 45q58 45 58 126z" />
    <glyph glyph-name="t" unicode="t" horiz-adv-x="741" 
d="M631 201h8q0 -105 -40 -165q-39 -60 -149 -60t-178 80q-68 81 -67 227v628h-146v9h146v329h170v-329h235v-9h-235v-628q0 -206 54 -256q28 -27 71 -27q131 0 131 201z" />
    <glyph glyph-name="u" unicode="u" horiz-adv-x="1120" 
d="M1071 0h-299v141q-100 -166 -268 -166q-141 0 -244 88q-102 88 -102 240v336q0 232 -32 258q-15 12 -56 14l-41 2v7h299v-619q0 -153 56 -227t153 -74q145 0 231 152v487q0 230 -34 258q-15 12 -58 14l-41 2v7h303v-639q0 -232 34 -258q15 -12 58 -15l41 -2v-6z" />
    <glyph glyph-name="v" unicode="v" horiz-adv-x="948" 
d="M4 920h393v-7l-37 -2q-35 -2 -49 -12q-27 -20 0 -102q10 -31 37 -103l213 -565l174 473q37 88 23 197t-78 112l-35 2v7h301v-7q-49 -6 -67 -22q-41 -37 -136 -289l-231 -629h-68l-274 715q-53 137 -80 177t-86 48v7z" />
    <glyph glyph-name="w" unicode="w" horiz-adv-x="1568" 
d="M4 920h393v-7l-37 -2q-33 -2 -47 -12q-25 -18 -6 -83t41 -122l201 -551l266 797h68l301 -803l155 465q35 88 30 197t-66 112l-35 2v7h299v-7q-51 -6 -72 -19q-22 -13 -62 -84t-85 -208l-211 -629h-68l-303 791l-264 -791h-68l-264 715q-49 135 -77 176t-89 49v7z" />
    <glyph glyph-name="x" unicode="x" horiz-adv-x="1007" 
d="M319 0h-294v6q61 12 140 73q79 60 157 177l110 166l-176 266q-84 127 -128 172t-108 53v7h435v-7l-37 -2q-102 -5 -37 -128q18 -36 53 -89l119 -180l98 150q57 86 75 160t-28 87l-34 2v7h301v-7q-68 -8 -148 -69t-155 -180l-103 -158l182 -275q80 -121 129 -168t117 -57
v-6h-434v6l37 2q52 8 42 68t-69 149l-125 189l-106 -158q-58 -86 -76 -162t29 -86l34 -2v-6z" />
    <glyph glyph-name="y" unicode="y" horiz-adv-x="948" 
d="M674 -426h-377v6l22 2q88 8 125 87t37 294v33l-311 692q-57 127 -89 173t-63 50l-16 2v7h401v-7l-36 -2q-35 -2 -51 -14t-15 -51q0 -39 53 -152l213 -477l154 385q47 111 41 208t-72 101l-35 2v7h291v-7l-16 -2q-45 -6 -85 -64t-114 -245l-242 -606v-33q0 -215 37 -294
t125 -87l23 -2v-6z" />
    <glyph glyph-name="z" unicode="z" horiz-adv-x="933" 
d="M813 920v-19l-526 -893h258q121 0 177 53t95 181l17 51h6v-293h-731v18l520 893h-195q-117 0 -175 -49t-101 -168l-17 -45h-6v271h678z" />
    <glyph glyph-name="braceleft" unicode="{" 
d="M860 0h-692v1382h692v-1382zM223 1303v-859l252 -247v125l-168 221v151l414 -411v-125l80 -84v512l-80 80v-156l-414 412v133l168 -111v111z" />
    <glyph glyph-name="bar" unicode="|" horiz-adv-x="512" 
d="M266 1573v-1966h-20v1966h20z" />
    <glyph glyph-name="braceright" unicode="}" 
d="M860 0h-692v1382h692v-1382zM223 1303v-859l252 -247v125l-168 221v151l414 -411v-125l80 -84v512l-80 80v-156l-414 412v133l168 -111v111z" />
    <glyph glyph-name="asciitilde" unicode="~" 
d="M860 0h-692v1382h692v-1382zM223 1303v-859l252 -247v125l-168 221v151l414 -411v-125l80 -84v512l-80 80v-156l-414 412v133l168 -111v111z" />
    <glyph glyph-name="exclamdown" unicode="&#xa1;" horiz-adv-x="512" 
d="M254 434v125h8v-125q0 -156 46 -410t46 -366q0 -43 -26 -70q-26 -26 -70 -26q-45 0 -72 26t-26 70q0 112 47 366t47 410zM255 717q-47 1 -75 31t-28 80t28 82q29 32 75 32t75 -32q28 -32 28 -82t-28 -80t-75 -31z" />
    <glyph glyph-name="cent" unicode="&#xa2;" horiz-adv-x="1048" 
d="M279 528q0 -374 140 -480q56 -42 138 -48v1032h-2q-102 0 -167 -79t-87 -189t-22 -236zM557 -231v204q-221 2 -350 160t-129 376t129 375t348 156h2v205h10v-205q161 -4 267 -83t106 -160q0 -47 -31 -78t-79 -31t-80 31t-31 74q0 43 23 85q24 42 24 57t-18 35t-66 40
t-115 22v-1032h21q129 0 227 84t129 213l10 -2q-31 -135 -136 -227t-251 -95v-204h-10z" />
    <glyph glyph-name="sterling" unicode="&#xa3;" horiz-adv-x="1062" 
d="M123 514h196q-43 51 -60 75t-39 73t-21 98q0 125 96 203t268 77q119 0 235 -66t115 -140q1 -45 -29 -74t-76 -29t-76 30t-30 69q0 40 23 76t23 48q0 27 -58 53t-131 25q-233 0 -233 -194q0 -64 26 -118t82 -121q55 -67 68 -85h334v-8h-328q31 -50 31 -110t-47 -116
t-173 -130h359q229 0 258 33q12 15 14 59l2 41h6v-283h-808v18l174 154q78 68 77 168q0 72 -75 166h-203v8z" />
    <glyph glyph-name="currency" unicode="&#xa4;" 
d="M860 0h-692v1382h692v-1382zM223 1303v-859l252 -247v125l-168 221v151l414 -411v-125l80 -84v512l-80 80v-156l-414 412v133l168 -111v111z" />
    <glyph glyph-name="yen" unicode="&#xa5;" horiz-adv-x="1124" 
d="M184 289h283v209h-283v8h279l-172 266q-98 152 -133 192t-80 42l-27 2v6h418v-6l-33 -2q-57 -4 -57 -37q2 -37 102 -191l166 -256l105 156q104 152 104 221q0 102 -84 107h-33v8h332v-8h-33q-41 -2 -86 -56t-192 -276l-113 -168h283v-8h-283v-209h283v-8h-283v-43
q0 -187 31 -214q16 -15 57 -18h33v-6h-422v6h33q41 2 57 16q31 28 31 216v43h-283v8z" />
    <glyph glyph-name="brokenbar" unicode="&#xa6;" 
d="M860 0h-692v1382h692v-1382zM223 1303v-859l252 -247v125l-168 221v151l414 -411v-125l80 -84v512l-80 80v-156l-414 412v133l168 -111v111z" />
    <glyph glyph-name="section" unicode="&#xa7;" 
d="M860 0h-692v1382h692v-1382zM223 1303v-859l252 -247v125l-168 221v151l414 -411v-125l80 -84v512l-80 80v-156l-414 412v133l168 -111v111z" />
    <glyph glyph-name="dieresis" unicode="&#xa8;" 
d="M772 1303q0 -47 -28 -76t-70 -29t-69 29q-28 29 -27 76q0 47 28 75t68 29q42 -1 70 -29t28 -75zM444 1303q0 -47 -28 -76t-69 -29t-69 29t-28 76t28 75t68 29q40 -1 70 -29q28 -28 28 -75z" />
    <glyph glyph-name="dieresis" unicode="&#x308;" 
d="M772 1303q0 -47 -28 -76t-70 -29t-69 29q-28 29 -27 76q0 47 28 75t68 29q42 -1 70 -29t28 -75zM444 1303q0 -47 -28 -76t-69 -29t-69 29t-28 76t28 75t68 29q40 -1 70 -29q28 -28 28 -75z" />
    <glyph glyph-name="copyright" unicode="&#xa9;" horiz-adv-x="1603" 
d="M1386 690q0 240 -171 409t-413 169t-414 -169q-171 -169 -171 -409t172 -410t414 -169q243 -1 413 169t170 410zM1497 689q0 -287 -203 -491q-204 -204 -492 -204t-492 205t-204 493t204 490t493 202t491 -204t203 -491zM822 285q-182 1 -290 123t-108 290t107 291
q108 123 291 123t294 -131l-98 -90q-53 51 -96 75t-105 23q-111 0 -179 -81t-67 -210q0 -129 68 -214q69 -85 187 -85t204 107l86 -90q-111 -131 -294 -131z" />
    <glyph glyph-name="ordfeminine" unicode="&#xaa;" 
d="M860 0h-692v1382h692v-1382zM223 1303v-859l252 -247v125l-168 221v151l414 -411v-125l80 -84v512l-80 80v-156l-414 412v133l168 -111v111z" />
    <glyph glyph-name="guillemotleft" unicode="&#xab;" horiz-adv-x="839" 
d="M588 477q14 -83 58 -195t91 -184h-8q-137 195 -340 379q203 184 340 379h8q-47 -72 -91 -184t-58 -195zM260 477q14 -83 58 -195t92 -184h-9q-137 195 -340 379q203 184 340 379h9q-48 -72 -92 -184t-58 -195z" />
    <glyph glyph-name="logicalnot" unicode="&#xac;" 
d="M860 0h-692v1382h692v-1382zM223 1303v-859l252 -247v125l-168 221v151l414 -411v-125l80 -84v512l-80 80v-156l-414 412v133l168 -111v111z" />
    <glyph glyph-name="registered" unicode="&#xae;" horiz-adv-x="1603" 
d="M803 743q68 1 116 31t48 90t-41 93q-41 32 -111 32h-158v-246h146zM657 299h-135v801h322q110 0 186 -58t76 -163q0 -170 -193 -222l258 -358h-163l-230 338q-20 -2 -61 -2h-60v-336zM1386 690q0 240 -171 409t-413 169t-414 -169q-171 -169 -171 -409t172 -410t414 -169
q243 -1 413 169t170 410zM1497 690q0 -288 -203 -492q-204 -204 -492 -204t-492 205t-204 493t204 490t493 202t491 -202t203 -492z" />
    <glyph glyph-name="macron" unicode="&#xaf;" 
d="M770 1227h-516v104h516v-104z" />
    <glyph glyph-name="macron" unicode="&#x304;" 
d="M770 1227h-516v104h516v-104z" />
    <glyph glyph-name="macron" unicode="&#x2c9;" 
d="M770 1227h-516v104h516v-104z" />
    <glyph glyph-name="degree" unicode="&#xb0;" 
d="M860 0h-692v1382h692v-1382zM223 1303v-859l252 -247v125l-168 221v151l414 -411v-125l80 -84v512l-80 80v-156l-414 412v133l168 -111v111z" />
    <glyph glyph-name="plusminus" unicode="&#xb1;" 
d="M860 0h-692v1382h692v-1382zM223 1303v-859l252 -247v125l-168 221v151l414 -411v-125l80 -84v512l-80 80v-156l-414 412v133l168 -111v111z" />
    <glyph glyph-name="twosuperior" unicode="&#xb2;" 
d="M860 0h-692v1382h692v-1382zM223 1303v-859l252 -247v125l-168 221v151l414 -411v-125l80 -84v512l-80 80v-156l-414 412v133l168 -111v111z" />
    <glyph glyph-name="threesuperior" unicode="&#xb3;" 
d="M860 0h-692v1382h692v-1382zM223 1303v-859l252 -247v125l-168 221v151l414 -411v-125l80 -84v512l-80 80v-156l-414 412v133l168 -111v111z" />
    <glyph glyph-name="acute" unicode="&#xb4;" 
d="M367 997h-9l150 383h158z" />
    <glyph glyph-name="acute" unicode="&#x301;" 
d="M367 997h-9l150 383h158z" />
    <glyph glyph-name="acute" unicode="&#x2ca;" 
d="M367 997h-9l150 383h158z" />
    <glyph glyph-name="mu" unicode="&#xb5;" 
d="M860 0h-692v1382h692v-1382zM223 1303v-859l252 -247v125l-168 221v151l414 -411v-125l80 -84v512l-80 80v-156l-414 412v133l168 -111v111z" />
    <glyph glyph-name="paragraph" unicode="&#xb6;" horiz-adv-x="1206" 
d="M623 -418q135 0 212 96t76 287v494q-98 -25 -313 -25t-360 124q-146 124 -146 352t136 362q136 135 368 135q143 0 324 -53v-1391q0 -195 -81 -292t-225 -97t-225 65q-80 65 -80 148q0 47 31 78t79 31t80 -31q62 -60 8 -159q-24 -42 -24 -58t6 -30q5 -14 39 -24
q34 -12 95 -12z" />
    <glyph glyph-name="periodcentered" unicode="&#xb7;" horiz-adv-x="512" 
d="M255 590q47 0 75 -31t28 -81t-28 -82t-75 -32q-46 0 -75 32q-28 32 -28 82t28 81q29 31 75 31z" />
    <glyph glyph-name="periodcentered" unicode="&#x2219;" horiz-adv-x="512" 
d="M255 590q47 0 75 -31t28 -81t-28 -82t-75 -32q-46 0 -75 32q-28 32 -28 82t28 81q29 31 75 31z" />
    <glyph glyph-name="cedilla" unicode="&#xb8;" 
d="M473 -420q125 0 125 154q0 80 -29 135t-110 117h8q159 -113 197 -157q38 -43 38 -107t-63 -106t-144 -42t-128 30t-47 67q-1 65 55 67q23 0 38 -16t15 -35t-11 -35t-11 -28t18 -28t49 -16z" />
    <glyph glyph-name="cedilla" unicode="&#x327;" 
d="M473 -420q125 0 125 154q0 80 -29 135t-110 117h8q159 -113 197 -157q38 -43 38 -107t-63 -106t-144 -42t-128 30t-47 67q-1 65 55 67q23 0 38 -16t15 -35t-11 -35t-11 -28t18 -28t49 -16z" />
    <glyph glyph-name="onesuperior" unicode="&#xb9;" 
d="M860 0h-692v1382h692v-1382zM223 1303v-859l252 -247v125l-168 221v151l414 -411v-125l80 -84v512l-80 80v-156l-414 412v133l168 -111v111z" />
    <glyph glyph-name="ordmasculine" unicode="&#xba;" 
d="M860 0h-692v1382h692v-1382zM223 1303v-859l252 -247v125l-168 221v151l414 -411v-125l80 -84v512l-80 80v-156l-414 412v133l168 -111v111z" />
    <glyph glyph-name="guillemotright" unicode="&#xbb;" horiz-adv-x="839" 
d="M252 477q-14 82 -58 195t-92 184h9q137 -195 340 -379q-203 -184 -340 -379h-9q48 72 92 184t58 195zM580 477q-14 82 -59 195q-44 113 -91 184h8q137 -195 340 -379q-203 -184 -340 -379h-8q48 72 92 184t58 195z" />
    <glyph glyph-name="onequarter" unicode="&#xbc;" 
d="M860 0h-692v1382h692v-1382zM223 1303v-859l252 -247v125l-168 221v151l414 -411v-125l80 -84v512l-80 80v-156l-414 412v133l168 -111v111z" />
    <glyph glyph-name="onehalf" unicode="&#xbd;" 
d="M860 0h-692v1382h692v-1382zM223 1303v-859l252 -247v125l-168 221v151l414 -411v-125l80 -84v512l-80 80v-156l-414 412v133l168 -111v111z" />
    <glyph glyph-name="threequarters" unicode="&#xbe;" 
d="M860 0h-692v1382h692v-1382zM223 1303v-859l252 -247v125l-168 221v151l414 -411v-125l80 -84v512l-80 80v-156l-414 412v133l168 -111v111z" />
    <glyph glyph-name="questiondown" unicode="&#xbf;" horiz-adv-x="899" 
d="M635 830q0 -50 -29 -80t-75 -31q-47 1 -75 31t-28 80t29 82t75 32t74 -32q29 -32 29 -82zM858 -252q0 -88 -96 -150t-250 -61q-154 0 -279 88t-124 256q0 135 97 227t304 189q66 31 92 61t27 80q0 51 -48 81t-116 30h-23v8h23q68 0 121 -31t53 -86t-29 -87
q-29 -31 -95 -63q-129 -61 -165 -167q-37 -105 -37 -236q0 -342 230 -342q73 0 111 27t38 47t-22 57q-23 37 -23 76t30 69q30 29 76 29q45 0 75 -28t30 -74z" />
    <glyph glyph-name="Agrave" unicode="&#xc0;" horiz-adv-x="1382" 
d="M690 1427h-8l-299 252h178zM606 1198l-235 -616h473zM426 0h-416v6l23 2q47 4 77 30q61 53 209 433l357 930h22l432 -1057q90 -221 126 -275t116 -63v-6h-489v6l53 2q84 2 85 58t-81 268l-92 239h-481l-39 -102q-60 -153 -60 -265t24 -153t91 -45l43 -2v-6z" />
    <glyph glyph-name="Aacute" unicode="&#xc1;" horiz-adv-x="1382" 
d="M696 1427h-8l129 252h178zM606 1198l-235 -616h473zM426 0h-416v6l23 2q47 4 77 30q61 53 209 433l357 930h22l432 -1057q90 -221 126 -275t116 -63v-6h-489v6l53 2q84 2 85 58t-81 268l-92 239h-481l-39 -102q-60 -153 -60 -265t24 -153t91 -45l43 -2v-6z" />
    <glyph glyph-name="Acircumflex" unicode="&#xc2;" horiz-adv-x="1382" 
d="M489 1427h-8l119 252h178l119 -252h-8l-201 187zM606 1198l-235 -616h473zM426 0h-416v6l23 2q47 4 77 30q61 53 209 433l357 930h22l432 -1057q90 -221 126 -275t116 -63v-6h-489v6l53 2q84 2 85 58t-81 268l-92 239h-481l-39 -102q-60 -153 -60 -265t24 -153t91 -45
l43 -2v-6z" />
    <glyph glyph-name="Atilde" unicode="&#xc3;" horiz-adv-x="1382" 
d="M797 1475q-31 1 -123 33t-121 32q-55 0 -72 -45q-10 -27 -14 -63h-8q23 221 133 221q31 0 123 -33t121 -33q55 0 71 45q10 27 15 64h8q-22 -221 -133 -221zM606 1198l-235 -616h473zM426 0h-416v6l23 2q47 4 77 30q61 53 209 433l357 930h22l432 -1057q90 -221 126 -275
t116 -63v-6h-489v6l53 2q84 2 85 58t-81 268l-92 239h-481l-39 -102q-60 -153 -60 -265t24 -153t91 -45l43 -2v-6z" />
    <glyph glyph-name="Adieresis" unicode="&#xc4;" horiz-adv-x="1382" 
d="M946 1575q0 -47 -28 -76t-69 -29q-42 0 -70 29t-27 76q0 47 27 76q28 29 69 29t70 -29q28 -29 28 -76zM618 1575q0 -47 -28 -76t-69 -29t-69 29t-28 76t28 76t68 29t70 -29q28 -29 28 -76zM606 1198l-235 -616h473zM426 0h-416v6l23 2q47 4 77 30q61 53 209 433l357 930
h22l432 -1057q90 -221 126 -275t116 -63v-6h-489v6l53 2q84 2 85 58t-81 268l-92 239h-481l-39 -102q-60 -153 -60 -265t24 -153t91 -45l43 -2v-6z" />
    <glyph glyph-name="Aring" unicode="&#xc5;" horiz-adv-x="1382" 
d="M866 1606q0 -68 -49 -113t-128 -45t-129 45t-50 113t49 112t128 45q79 -1 129 -45t50 -112zM774 1604q0 148 -85 149q-85 -1 -85 -149t85 -148t85 148zM606 1198l-235 -616h473zM426 0h-416v6l23 2q47 4 77 30q61 53 209 433l357 930h22l432 -1057q90 -221 126 -275
t116 -63v-6h-489v6l53 2q84 2 85 58t-81 268l-92 239h-481l-39 -102q-60 -153 -60 -265t24 -153t91 -45l43 -2v-6z" />
    <glyph glyph-name="AE" unicode="&#xc6;" horiz-adv-x="1990" 
d="M973 1063q0 242 -37 285l-393 -686h430v401zM1507 424h-6l-12 45q-31 119 -100 152q-68 32 -154 32h-76v-336q1 -211 15 -260t81 -49h113q112 0 178 22q147 49 240 332l22 70h7v-432h-1004v6l43 2q55 2 77 22q42 37 42 287v336h-434l-105 -182q-156 -276 -155 -342
q0 -115 104 -121l43 -2v-6h-416v6l23 2q71 6 153 96t238 367l504 883q-18 14 -74 18l-84 2v6h1004v-370h-7l-22 69q-61 188 -173 246q-56 29 -110 38t-135 9h-72q-67 0 -81 -49t-15 -260v-401h76q150 0 210 83q28 39 44 101l12 45h6v-467z" />
    <glyph glyph-name="Ccedilla" unicode="&#xc7;" horiz-adv-x="1396" 
d="M672 -420q125 0 125 154q0 78 -28 133t-103 113q-262 33 -408 235q-145 203 -145 473q0 412 288 615q150 104 355 104q135 0 239 -70q41 -29 66 -28q45 0 127 98h4v-397h-6l-23 69q-45 139 -148 229t-239 91t-223 -59q-154 -104 -205 -374t-2 -538q85 -446 414 -446
q94 0 174 38t132 102q102 123 138 240l23 70h6v-459h-4q-88 113 -148 113q-27 0 -73 -33q-119 -80 -252 -80q-43 0 -80 7q112 -81 157 -120q44 -40 56 -69t12 -63q0 -70 -63 -112t-144 -42t-129 30q-47 30 -47 79q0 25 16 39t38 16q24 0 39 -16q32 -34 4 -71
q-11 -15 -11 -27t18 -28t50 -16z" />
    <glyph glyph-name="Egrave" unicode="&#xc8;" horiz-adv-x="1282" 
d="M655 1427h-8l-299 252h178zM801 475h-6l-13 45q-32 121 -108 157q-57 26 -146 28h-116v-388q0 -211 14 -260t82 -49h154q112 0 178 22q148 50 239 332l23 70h6v-432h-1045v6l43 2q55 2 77 22q42 37 42 287v746q0 250 -42 288q-22 19 -77 21l-43 2v6h1004v-370h-6l-23 69
q-61 189 -173 246q-56 29 -110 38t-134 9h-113q-68 0 -82 -49t-14 -260v-350h116q153 0 210 84q28 39 44 100l13 45h6v-467z" />
    <glyph glyph-name="Eacute" unicode="&#xc9;" horiz-adv-x="1282" 
d="M633 1427h-8l129 252h178zM801 475h-6l-13 45q-32 121 -108 157q-57 26 -146 28h-116v-388q0 -211 14 -260t82 -49h154q112 0 178 22q148 50 239 332l23 70h6v-432h-1045v6l43 2q55 2 77 22q42 37 42 287v746q0 250 -42 288q-22 19 -77 21l-43 2v6h1004v-370h-6l-23 69
q-61 189 -173 246q-56 29 -110 38t-134 9h-113q-68 0 -82 -49t-14 -260v-350h116q153 0 210 84q28 39 44 100l13 45h6v-467z" />
    <glyph glyph-name="Ecircumflex" unicode="&#xca;" horiz-adv-x="1282" 
d="M453 1427h-9l119 252h178l119 -252h-8l-201 187zM801 475h-6l-13 45q-32 121 -108 157q-57 26 -146 28h-116v-388q0 -211 14 -260t82 -49h154q112 0 178 22q148 50 239 332l23 70h6v-432h-1045v6l43 2q55 2 77 22q42 37 42 287v746q0 250 -42 288q-22 19 -77 21l-43 2v6
h1004v-370h-6l-23 69q-61 189 -173 246q-56 29 -110 38t-134 9h-113q-68 0 -82 -49t-14 -260v-350h116q153 0 210 84q28 39 44 100l13 45h6v-467z" />
    <glyph glyph-name="Edieresis" unicode="&#xcb;" horiz-adv-x="1282" 
d="M899 1575q0 -47 -28 -76q-27 -29 -69 -29t-70 29t-27 76q0 47 27 76q28 29 69 29t69 -30q28 -28 29 -75zM571 1575q1 -47 -27 -76t-70 -29t-70 29t-27 76q0 47 27 76q28 29 69 29t70 -29q28 -29 28 -76zM801 475h-6l-13 45q-32 121 -108 157q-57 26 -146 28h-116v-388
q0 -211 14 -260t82 -49h154q112 0 178 22q148 50 239 332l23 70h6v-432h-1045v6l43 2q55 2 77 22q42 37 42 287v746q0 250 -42 288q-22 19 -77 21l-43 2v6h1004v-370h-6l-23 69q-61 189 -173 246q-56 29 -110 38t-134 9h-113q-68 0 -82 -49t-14 -260v-350h116q153 0 210 84
q28 39 44 100l13 45h6v-467z" />
    <glyph glyph-name="Igrave" unicode="&#xcc;" horiz-adv-x="636" 
d="M334 1427h-8l-299 252h178zM412 1063v-746q0 -249 42 -287q22 -19 76 -22l43 -2v-6h-510v6l43 2q55 2 77 22q42 37 42 287v746q0 250 -42 288q-22 19 -77 21l-43 2v6h510v-6l-43 -2q-54 -2 -76 -21q-42 -37 -42 -288z" />
    <glyph glyph-name="Iacute" unicode="&#xcd;" horiz-adv-x="636" 
d="M305 1427h-8l129 252h178zM412 1063v-746q0 -249 42 -287q22 -19 76 -22l43 -2v-6h-510v6l43 2q55 2 77 22q42 37 42 287v746q0 250 -42 288q-22 19 -77 21l-43 2v6h510v-6l-43 -2q-54 -2 -76 -21q-42 -37 -42 -288z" />
    <glyph glyph-name="Icircumflex" unicode="&#xce;" horiz-adv-x="636" 
d="M121 1427h-8l118 252h179l118 -252h-8l-201 187zM412 1063v-746q0 -249 42 -287q22 -19 76 -22l43 -2v-6h-510v6l43 2q55 2 77 22q42 37 42 287v746q0 250 -42 288q-22 19 -77 21l-43 2v6h510v-6l-43 -2q-54 -2 -76 -21q-42 -37 -42 -288z" />
    <glyph glyph-name="Idieresis" unicode="&#xcf;" horiz-adv-x="636" 
d="M578 1575q0 -47 -28 -76t-70 -29t-70 29t-27 76q0 47 28 76q29 29 69 29t69 -30q29 -28 29 -75zM250 1575q0 -47 -28 -76t-70 -29t-69 29q-28 29 -28 76t28 76t69 29q42 0 70 -30q28 -28 28 -75zM412 1063v-746q0 -249 42 -287q22 -19 76 -22l43 -2v-6h-510v6l43 2
q55 2 77 22q42 37 42 287v746q0 250 -42 288q-22 19 -77 21l-43 2v6h510v-6l-43 -2q-54 -2 -76 -21q-42 -37 -42 -288z" />
    <glyph glyph-name="Eth" unicode="&#xd0;" horiz-adv-x="1519" 
d="M735 1372h-227q-68 0 -82 -49t-14 -260v-344h366v-8h-366v-394q0 -211 14 -260t82 -49h227q166 0 278 100q202 181 203 582q1 400 -216 586q-111 96 -265 96zM20 711v8h205v344q0 250 -42 288q-22 19 -77 21l-43 2v6h672q328 0 510 -196t182 -491q0 -297 -186 -495
t-504 -198h-674v6l43 2q55 2 77 22q42 37 42 287v394h-205z" />
    <glyph glyph-name="Ntilde" unicode="&#xd1;" horiz-adv-x="1597" 
d="M915 1475q-31 1 -123 33t-120 32q-55 0 -72 -45q-10 -27 -14 -63h-8q23 221 133 221q31 0 123 -33t120 -33q55 0 72 45q10 27 14 64h9q-23 -221 -134 -221zM1346 889q0 143 -36 260t-79 169t-98 54l-43 2v6h444v-6l-23 -2q-85 -8 -121 -126t-36 -357v-907h-29l-1073 1275
v-765q0 -146 36 -262q68 -218 177 -222l43 -2v-6h-445v6l23 2q84 8 121 126t37 358v571q0 252 -60 290q-27 17 -84 19l-37 2v6h338l945 -1144v653z" />
    <glyph glyph-name="Ograve" unicode="&#xd2;" horiz-adv-x="1536" 
d="M778 1427h-8l-299 252h178zM1444 692q0 -297 -182 -508t-494 -211t-494 211t-182 508t182 506t494 209t494 -209t182 -506zM1134 198q99 192 99 488t-99 496q-52 102 -146 159t-220 57q-127 0 -220 -56q-169 -104 -221 -383q-24 -122 -24 -268q0 -294 99 -492
q52 -101 146 -159t220 -58q127 0 220 57t146 159z" />
    <glyph glyph-name="Oacute" unicode="&#xd3;" horiz-adv-x="1536" 
d="M748 1427h-9l129 252h179zM1444 692q0 -297 -182 -508t-494 -211t-494 211t-182 508t182 506t494 209t494 -209t182 -506zM1134 198q99 192 99 488t-99 496q-52 102 -146 159t-220 57q-127 0 -220 -56q-169 -104 -221 -383q-24 -122 -24 -268q0 -294 99 -492
q52 -101 146 -159t220 -58q127 0 220 57t146 159z" />
    <glyph glyph-name="Ocircumflex" unicode="&#xd4;" horiz-adv-x="1536" 
d="M565 1427h-8l119 252h178l119 -252h-8l-201 187zM1444 692q0 -297 -182 -508t-494 -211t-494 211t-182 508t182 506t494 209t494 -209t182 -506zM1134 198q99 192 99 488t-99 496q-52 102 -146 159t-220 57q-127 0 -220 -56q-169 -104 -221 -383q-24 -122 -24 -268
q0 -294 99 -492q52 -101 146 -159t220 -58q127 0 220 57t146 159z" />
    <glyph glyph-name="Otilde" unicode="&#xd5;" horiz-adv-x="1536" 
d="M881 1475q-31 1 -123 33t-121 32q-55 0 -72 -45q-8 -27 -14 -63h-8q23 221 133 221q31 0 123 -33t121 -33q55 0 71 45q8 27 15 64h8q-22 -221 -133 -221zM1444 692q0 -297 -182 -508t-494 -211t-494 211t-182 508t182 506t494 209t494 -209t182 -506zM1134 198
q99 192 99 488t-99 496q-52 102 -146 159t-220 57q-127 0 -220 -56q-169 -104 -221 -383q-24 -122 -24 -268q0 -294 99 -492q52 -101 146 -159t220 -58q127 0 220 57t146 159z" />
    <glyph glyph-name="Odieresis" unicode="&#xd6;" horiz-adv-x="1536" 
d="M1026 1575q0 -47 -28 -76t-70 -29t-69 29q-28 29 -28 76t28 76t69 29q42 0 70 -30q28 -28 28 -75zM698 1575q0 -47 -28 -76t-69 -29q-42 0 -70 29t-27 76q0 47 27 76q28 29 69 29t70 -29q28 -29 28 -76zM1444 692q0 -297 -182 -508t-494 -211t-494 211t-182 508t182 506
t494 209t494 -209t182 -506zM1134 198q99 192 99 488t-99 496q-52 102 -146 159t-220 57q-127 0 -220 -56q-169 -104 -221 -383q-24 -122 -24 -268q0 -294 99 -492q52 -101 146 -159t220 -58q127 0 220 57t146 159z" />
    <glyph glyph-name="multiply" unicode="&#xd7;" 
d="M905 203l-80 -78l-313 311l-313 -311l-80 78l313 313l-313 315l78 80l315 -315l315 315l78 -80l-313 -315z" />
    <glyph glyph-name="Oslash" unicode="&#xd8;" horiz-adv-x="1499" 
d="M303 690q0 -338 117 -522l651 1102q-117 129 -303 129q-127 1 -220 -57q-169 -104 -221 -383q-24 -122 -24 -269zM1233 690q0 387 -156 572l-653 -1102q121 -178 344 -178q127 0 220 57q245 150 245 651zM92 692q0 297 182 506t494 209q186 0 336 -84l115 195l8 -5
l-115 -194q158 -92 245 -260t87 -367q0 -297 -182 -508t-494 -211q-219 0 -387 115l-129 -219l-6 4l129 219q-135 98 -209 258t-74 342z" />
    <glyph glyph-name="Ugrave" unicode="&#xd9;" horiz-adv-x="1595" 
d="M842 1427h-8l-299 252h178zM1341 457v432q0 145 -36 261t-78 168q-43 52 -99 54l-43 2v6h447v-6l-23 -2q-160 -14 -159 -483v-432q0 -215 -146 -347t-407 -132q-260 0 -416 128q-156 129 -156 351v606q0 250 -42 288q-22 19 -77 21l-43 2v6h510v-6l-43 -2q-54 -2 -76 -21
q-42 -37 -42 -288v-604q0 -209 118 -329t341 -120q222 0 347 126q123 126 123 321z" />
    <glyph glyph-name="Uacute" unicode="&#xda;" horiz-adv-x="1595" 
d="M823 1427h-8l129 252h178zM1341 457v432q0 145 -36 261t-78 168q-43 52 -99 54l-43 2v6h447v-6l-23 -2q-160 -14 -159 -483v-432q0 -215 -146 -347t-407 -132q-260 0 -416 128q-156 129 -156 351v606q0 250 -42 288q-22 19 -77 21l-43 2v6h510v-6l-43 -2q-54 -2 -76 -21
q-42 -37 -42 -288v-604q0 -209 118 -329t341 -120q222 0 347 126q123 126 123 321z" />
    <glyph glyph-name="Ucircumflex" unicode="&#xdb;" horiz-adv-x="1595" 
d="M629 1427h-8l118 252h179l118 -252h-8l-201 187zM1341 457v432q0 145 -36 261t-78 168q-43 52 -99 54l-43 2v6h447v-6l-23 -2q-160 -14 -159 -483v-432q0 -215 -146 -347t-407 -132q-260 0 -416 128q-156 129 -156 351v606q0 250 -42 288q-22 19 -77 21l-43 2v6h510v-6
l-43 -2q-54 -2 -76 -21q-42 -37 -42 -288v-604q0 -209 118 -329t341 -120q222 0 347 126q123 126 123 321z" />
    <glyph glyph-name="Udieresis" unicode="&#xdc;" horiz-adv-x="1595" 
d="M1085 1575q1 -47 -27 -76t-70 -29t-70 29t-27 76q0 47 28 76q29 29 69 29t69 -29q28 -29 28 -76zM758 1575q0 -47 -28 -76t-70 -29t-70 29t-27 76q0 47 28 76q29 29 69 29t69 -30q29 -28 29 -75zM1341 457v432q0 145 -36 261t-78 168q-43 52 -99 54l-43 2v6h447v-6
l-23 -2q-160 -14 -159 -483v-432q0 -215 -146 -347t-407 -132q-260 0 -416 128q-156 129 -156 351v606q0 250 -42 288q-22 19 -77 21l-43 2v6h510v-6l-43 -2q-54 -2 -76 -21q-42 -37 -42 -288v-604q0 -209 118 -329t341 -120q222 0 347 126q123 126 123 321z" />
    <glyph glyph-name="Yacute" unicode="&#xdd;" horiz-adv-x="1314" 
d="M694 1427h-8l-299 252h178zM1024 1231q0 65 -24 101t-91 40l-43 2v6h447v-6l-43 -2q-56 -2 -118 -82t-257 -385l-147 -227v-361q0 -249 42 -287q22 -19 76 -22l43 -2v-6h-510v6l43 2q55 2 77 22q42 37 42 287v355l-237 364q-48 69 -112 175q-64 105 -99 129q-10 8 -26 20
t-48 12l-37 2v6h506v-6l-43 -2q-88 -6 -72 -80q14 -57 131 -245l219 -357l144 219q137 209 137 322z" />
    <glyph glyph-name="Thorn" unicode="&#xde;" horiz-adv-x="1312" 
d="M412 381h323q248 0 248 434q0 180 -61 297t-195 117h-315v-848zM412 373v-56q0 -249 42 -287q22 -19 76 -22l43 -2v-6h-510v6l43 2q55 2 77 22q42 37 42 287v746q0 250 -42 288q-22 19 -77 21l-43 2v6h510v-6l-43 -2q-72 -2 -96 -32t-22 -103h315q223 0 353 -109
q130 -110 130 -308t-124 -322t-351 -125h-323z" />
    <glyph glyph-name="germandbls" unicode="&#xdf;" horiz-adv-x="1202" 
d="M596 776q0 -64 53 -114t130 -82q77 -33 153 -70t130 -107q54 -69 54 -177t-96 -180t-249 -73t-225 55t-73 111q0 55 27 78q26 23 62 23t62 -23t26 -59t-36 -67q-34 -30 -34 -42q1 -31 57 -49q57 -18 149 -18t156 45q66 45 66 126t-54 130t-129 81q-77 32 -151 66
t-127 100t-53 144t36 130q38 50 90 85t105 72q127 89 127 215q0 100 -55 161t-172 61t-184 -70q-67 -71 -66 -210v-1118h-303v6l41 2q43 2 58 14q34 28 34 259v743q0 158 122 270t310 113q145 0 251 -49t105 -160q0 -62 -41 -110t-99 -78t-117 -58q-140 -70 -140 -176z" />
    <glyph glyph-name="agrave" unicode="&#xe0;" horiz-adv-x="1036" 
d="M532 997h-8l-299 383h158zM1012 0h-299v141q-98 -164 -281 -164q-154 0 -249 70t-95 193q0 246 379 245q129 0 242 -49v281q1 107 -57 163t-169 56q-154 0 -153 -57q0 -13 22 -49t23 -76q0 -40 -30 -69q-30 -30 -76 -30q-45 0 -75 29t-30 74q0 80 85 133t241 53t272 -83
q117 -83 117 -238v-342q0 -232 33 -258q15 -12 59 -15l41 -2v-6zM279 229q0 -227 208 -227q66 0 126 42t96 108v274q-104 49 -215 49q-215 0 -215 -246z" />
    <glyph glyph-name="aacute" unicode="&#xe1;" horiz-adv-x="1036" 
d="M469 997h-8l149 383h158zM1012 0h-299v141q-98 -164 -281 -164q-154 0 -249 70t-95 193q0 246 379 245q129 0 242 -49v281q1 107 -57 163t-169 56q-154 0 -153 -57q0 -13 22 -49t23 -76q0 -40 -30 -69q-30 -30 -76 -30q-45 0 -75 29t-30 74q0 80 85 133t241 53t272 -83
q117 -83 117 -238v-342q0 -232 33 -258q15 -12 59 -15l41 -2v-6zM279 229q0 -227 208 -227q66 0 126 42t96 108v274q-104 49 -215 49q-215 0 -215 -246z" />
    <glyph glyph-name="acircumflex" unicode="&#xe2;" horiz-adv-x="1036" 
d="M279 997h-9l181 383h137l180 -383h-8l-242 297zM1012 0h-299v141q-98 -164 -281 -164q-154 0 -249 70t-95 193q0 246 379 245q129 0 242 -49v281q1 107 -57 163t-169 56q-154 0 -153 -57q0 -13 22 -49t23 -76q0 -40 -30 -69q-30 -30 -76 -30q-45 0 -75 29t-30 74
q0 80 85 133t241 53t272 -83q117 -83 117 -238v-342q0 -232 33 -258q15 -12 59 -15l41 -2v-6zM279 229q0 -227 208 -227q66 0 126 42t96 108v274q-104 49 -215 49q-215 0 -215 -246z" />
    <glyph glyph-name="atilde" unicode="&#xe3;" horiz-adv-x="1036" 
d="M631 1139q-33 1 -134 33t-139 32q-68 0 -88 -63q-8 -25 -18 -76h-8q14 135 52 193t101 59q33 0 133 -33t138 -33q68 0 88 64q8 25 18 76h8q-14 -135 -51 -193t-100 -59zM1012 0h-299v141q-98 -164 -281 -164q-154 0 -249 70t-95 193q0 246 379 245q129 0 242 -49v281
q1 107 -57 163t-169 56q-154 0 -153 -57q0 -13 22 -49t23 -76q0 -40 -30 -69q-30 -30 -76 -30q-45 0 -75 29t-30 74q0 80 85 133t241 53t272 -83q117 -83 117 -238v-342q0 -232 33 -258q15 -12 59 -15l41 -2v-6zM279 229q0 -227 208 -227q66 0 126 42t96 108v274
q-104 49 -215 49q-215 0 -215 -246z" />
    <glyph glyph-name="adieresis" unicode="&#xe4;" horiz-adv-x="1036" 
d="M774 1303q0 -47 -28 -76t-70 -29t-69 29q-28 29 -27 76q0 47 28 75t68 29q42 -1 70 -29t28 -75zM446 1303q0 -47 -28 -76t-69 -29t-69 29t-28 76t28 75t68 29q40 -1 70 -29q28 -28 28 -75zM1012 0h-299v141q-98 -164 -281 -164q-154 0 -249 70t-95 193q0 246 379 245
q129 0 242 -49v281q1 107 -57 163t-169 56q-154 0 -153 -57q0 -13 22 -49t23 -76q0 -40 -30 -69q-30 -30 -76 -30q-45 0 -75 29t-30 74q0 80 85 133t241 53t272 -83q117 -83 117 -238v-342q0 -232 33 -258q15 -12 59 -15l41 -2v-6zM279 229q0 -227 208 -227q66 0 126 42
t96 108v274q-104 49 -215 49q-215 0 -215 -246z" />
    <glyph glyph-name="aring" unicode="&#xe5;" horiz-adv-x="1036" 
d="M719 1210q1 -84 -59 -140t-157 -56t-158 56q-60 56 -60 140t60 140q59 56 157 57q98 -1 158 -57t59 -140zM621 1209q0 77 -30 133t-89 56t-88 -54q-29 -56 -29 -133t30 -133t88 -56t88 55t30 132zM1012 0h-299v141q-98 -164 -281 -164q-154 0 -249 70t-95 193
q0 246 379 245q129 0 242 -49v281q1 107 -57 163t-169 56q-154 0 -153 -57q0 -13 22 -49t23 -76q0 -40 -30 -69q-30 -30 -76 -30q-45 0 -75 29t-30 74q0 80 85 133t241 53t272 -83q117 -83 117 -238v-342q0 -232 33 -258q15 -12 59 -15l41 -2v-6zM279 229q0 -227 208 -227
q66 0 126 42t96 108v274q-104 49 -215 49q-215 0 -215 -246z" />
    <glyph glyph-name="ae" unicode="&#xe6;" horiz-adv-x="1665" 
d="M1133 936q-141 0 -189 -99t-49 -307h457q0 298 -102 372q-45 34 -117 34zM494 -2q174 0 290 164q-70 109 -75 264q-104 49 -215 49q-215 0 -215 -246q-1 -127 61 -179t154 -52zM410 -23q-132 0 -227 70t-95 193q0 246 379 245q129 0 242 -49v281q1 107 -57 163t-169 56
q-154 0 -153 -57q0 -13 22 -49t23 -76q0 -40 -30 -69q-30 -30 -76 -30q-45 0 -75 29t-30 74q0 80 85 133t232 53q225 0 336 -137q113 137 320 137t307 -114t100 -308h-649v-49q0 -341 143 -433q66 -42 166 -42q268 0 328 246l10 -2q-59 -268 -379 -269q-252 0 -372 183
q-76 -104 -163 -142q-86 -38 -218 -37z" />
    <glyph glyph-name="ccedilla" unicode="&#xe7;" horiz-adv-x="995" 
d="M471 -420q125 0 125 154q0 78 -27 132t-102 111q-188 23 -292 160q-103 137 -103 333t123 335t358 139q154 0 244 -66t90 -147q0 -47 -31 -78t-79 -31t-80 32q-62 59 -8 158q24 42 24 54q0 70 -160 70q-141 0 -213 -98t-72 -363q0 -266 77 -372q32 -45 90 -75t138 -30
q264 0 324 246l10 -2q-59 -268 -375 -269q-23 0 -55 4q151 -109 187 -151t36 -106q0 -62 -63 -104t-144 -42t-128 30t-47 67q-1 65 55 67q23 0 38 -16t15 -35q0 -20 -17 -44t7 -43q24 -20 55 -20z" />
    <glyph glyph-name="egrave" unicode="&#xe8;" horiz-adv-x="1038" 
d="M535 997h-9l-299 383h158zM506 936q-140 0 -188 -99t-50 -307h457q0 297 -101 372q-46 34 -118 34zM72 457q0 239 124 363t322 124t299 -114q100 -114 101 -308h-650v-49q0 -341 144 -433q66 -42 166 -42q268 0 327 246l10 -2q-59 -268 -378 -269q-217 -1 -341 143
t-124 341z" />
    <glyph glyph-name="eacute" unicode="&#xe9;" horiz-adv-x="1038" 
d="M512 997h-8l149 383h158zM506 936q-140 0 -188 -99t-50 -307h457q0 297 -101 372q-46 34 -118 34zM72 457q0 239 124 363t322 124t299 -114q100 -114 101 -308h-650v-49q0 -341 144 -433q66 -42 166 -42q268 0 327 246l10 -2q-59 -268 -378 -269q-217 -1 -341 143
t-124 341z" />
    <glyph glyph-name="ecircumflex" unicode="&#xea;" horiz-adv-x="1038" 
d="M287 997h-8l180 383h137l180 -383h-8l-242 297zM506 936q-140 0 -188 -99t-50 -307h457q0 297 -101 372q-46 34 -118 34zM72 457q0 239 124 363t322 124t299 -114q100 -114 101 -308h-650v-49q0 -341 144 -433q66 -42 166 -42q268 0 327 246l10 -2q-59 -268 -378 -269
q-217 -1 -341 143t-124 341z" />
    <glyph glyph-name="edieresis" unicode="&#xeb;" horiz-adv-x="1038" 
d="M807 1303q0 -47 -28 -76q-27 -29 -69 -29t-70 29t-28 76t28 75t69 29q41 -1 69 -29t29 -75zM479 1303q1 -47 -27 -76t-70 -29t-70 29t-27 76q-1 47 27 75t69 29q41 -1 69 -29t29 -75zM506 936q-140 0 -188 -99t-50 -307h457q0 297 -101 372q-46 34 -118 34zM72 457
q0 239 124 363t322 124t299 -114q100 -114 101 -308h-650v-49q0 -341 144 -433q66 -42 166 -42q268 0 327 246l10 -2q-59 -268 -378 -269q-217 -1 -341 143t-124 341z" />
    <glyph glyph-name="igrave" unicode="&#xec;" horiz-adv-x="497" 
d="M281 997h-9l-299 383h158zM375 920v-639q0 -232 34 -258q15 -12 58 -15l41 -2v-6h-436v6l41 2q43 2 58 14q34 28 34 259v358q0 230 -34 258q-15 12 -58 14l-41 2v7h303z" />
    <glyph glyph-name="iacute" unicode="&#xed;" horiz-adv-x="497" 
d="M264 997h-8l150 383h157zM375 920v-639q0 -232 34 -258q15 -12 58 -15l41 -2v-6h-436v6l41 2q43 2 58 14q34 28 34 259v358q0 230 -34 258q-15 12 -58 14l-41 2v7h303z" />
    <glyph glyph-name="icircumflex" unicode="&#xee;" horiz-adv-x="497" 
d="M35 997h-8l180 383h137l180 -383h-8l-242 297zM375 920v-639q0 -232 34 -258q15 -12 58 -15l41 -2v-6h-436v6l41 2q43 2 58 14q34 28 34 259v358q0 230 -34 258q-15 12 -58 14l-41 2v7h303z" />
    <glyph glyph-name="idieresis" unicode="&#xef;" horiz-adv-x="497" 
d="M537 1303q0 -47 -28 -76t-70 -29q-41 0 -69 29t-28 76t28 75t68 29q40 -1 70 -29q29 -28 29 -75zM209 1303q0 -47 -28 -76q-27 -29 -69 -29t-70 29t-28 76t28 75t69 29q41 -1 69 -29t29 -75zM375 920v-639q0 -232 34 -258q15 -12 58 -15l41 -2v-6h-436v6l41 2q43 2 58 14
q34 28 34 259v358q0 230 -34 258q-15 12 -58 14l-41 2v7h303z" />
    <glyph glyph-name="eth" unicode="&#xf0;" horiz-adv-x="1071" 
d="M799 457q0 233 -125 450q-74 31 -148 31t-128 -39q-97 -68 -118 -262q-35 -292 41 -495q60 -160 214 -160q264 0 264 475zM227 1380h305l134 -188q2 -6 10 -14l242 43v-9l-238 -43q193 -274 256 -414t63 -296q1 -211 -123 -348t-340 -137t-340 138q-124 140 -124 351
t123 347t340 136q66 0 133 -26q-55 92 -154 221l-281 -49v8l277 49l-33 43q-84 114 -126 147q-42 34 -72 33l-52 2v6z" />
    <glyph glyph-name="ntilde" unicode="&#xf1;" horiz-adv-x="1161" 
d="M709 1139q-33 1 -135 33t-138 32q-68 0 -88 -63q-8 -25 -18 -76h-8q14 135 52 193t101 59q33 0 133 -33t137 -33q68 0 89 64q8 25 18 76h8q-14 -135 -51 -193t-100 -59zM182 281v358q0 230 -34 258q-15 12 -58 14l-41 2v7h299v-142q104 164 291 164q154 0 259 -86
t106 -240v-335q0 -232 33 -258q15 -12 59 -15l41 -2v-6h-437v6l41 2q43 2 59 14q33 26 34 259v337q0 152 -62 226t-166 74q-166 0 -254 -150v-487q0 -232 34 -258q15 -12 58 -15l41 -2v-6h-436v6l41 2q43 2 58 14q34 28 34 259z" />
    <glyph glyph-name="ograve" unicode="&#xf2;" horiz-adv-x="1069" 
d="M553 997h-8l-299 383h157zM999 459q0 -201 -126 -343q-125 -142 -337 -142t-338 142q-126 144 -126 345t126 342t338 141t338 -142t125 -343zM799 457q1 225 -57 352t-208 127t-206 -125q-57 -125 -58 -352q0 -350 133 -442q53 -36 132 -35q150 0 207 125t57 350z" />
    <glyph glyph-name="oacute" unicode="&#xf3;" horiz-adv-x="1069" 
d="M510 997h-8l149 383h158zM999 459q0 -201 -126 -343q-125 -142 -337 -142t-338 142q-126 144 -126 345t126 342t338 141t338 -142t125 -343zM799 457q1 225 -57 352t-208 127t-206 -125q-57 -125 -58 -352q0 -350 133 -442q53 -36 132 -35q150 0 207 125t57 350z" />
    <glyph glyph-name="ocircumflex" unicode="&#xf4;" horiz-adv-x="1069" 
d="M299 997h-8l180 383h137l180 -383h-8l-241 297zM999 459q0 -201 -126 -343q-125 -142 -337 -142t-338 142q-126 144 -126 345t126 342t338 141t338 -142t125 -343zM799 457q1 225 -57 352t-208 127t-206 -125q-57 -125 -58 -352q0 -350 133 -442q53 -36 132 -35
q150 0 207 125t57 350z" />
    <glyph glyph-name="otilde" unicode="&#xf5;" horiz-adv-x="1069" 
d="M653 1139q-33 1 -134 33t-138 32q-68 0 -88 -63q-8 -25 -19 -76h-8q14 135 52 193t102 59q33 0 133 -33t137 -33q68 0 88 64q8 25 19 76h8q-14 -135 -51 -194q-38 -58 -101 -58zM999 459q0 -201 -126 -343q-125 -142 -337 -142t-338 142q-126 144 -126 345t126 342
t338 141t338 -142t125 -343zM799 457q1 225 -57 352t-208 127t-206 -125q-57 -125 -58 -352q0 -350 133 -442q53 -36 132 -35q150 0 207 125t57 350z" />
    <glyph glyph-name="odieresis" unicode="&#xf6;" horiz-adv-x="1069" 
d="M795 1303q0 -47 -28 -76t-70 -29q-41 0 -69 29t-28 76t28 75t68 29q40 -1 70 -29q29 -28 29 -75zM467 1303q0 -47 -28 -76q-27 -29 -69 -29t-70 29t-28 76t28 75t69 29q41 -1 69 -29t29 -75zM999 459q0 -201 -126 -343q-125 -142 -337 -142t-338 142q-126 144 -126 345
t126 342t338 141t338 -142t125 -343zM799 457q1 225 -57 352t-208 127t-206 -125q-57 -125 -58 -352q0 -350 133 -442q53 -36 132 -35q150 0 207 125t57 350z" />
    <glyph glyph-name="divide" unicode="&#xf7;" 
d="M412 209q0 43 27 72q28 29 71 29t72 -30q28 -28 28 -71t-28 -71t-72 -28q-43 0 -71 28q-27 28 -27 71zM412 823q0 43 27 72q28 29 71 29t72 -29q28 -29 28 -72t-28 -71t-72 -27q-42 -1 -70 27t-28 71zM983 461h-942v112h942v-112z" />
    <glyph glyph-name="oslash" unicode="&#xf8;" horiz-adv-x="1069" 
d="M534 936q-148 0 -206 -125t-58 -342t43 -328l432 660q-63 135 -211 135zM799 453q0 221 -49 335l-433 -657q63 -149 215 -149t210 125q57 125 57 346zM72 461q0 201 126 342t337 141q147 0 256 -74l112 170h12l-114 -176q94 -66 146 -174t52 -231q0 -201 -126 -343
t-338 -143q-154 0 -269 82l-112 -170h-11l115 174q-90 68 -138 174t-48 228z" />
    <glyph glyph-name="ugrave" unicode="&#xf9;" horiz-adv-x="1120" 
d="M522 997h-8l-299 383h158zM1071 0h-299v141q-100 -166 -268 -166q-141 0 -244 88q-102 88 -102 240v336q0 232 -32 258q-15 12 -56 14l-41 2v7h299v-619q0 -153 56 -227t153 -74q145 0 231 152v487q0 230 -34 258q-15 12 -58 14l-41 2v7h303v-639q0 -232 34 -258
q15 -12 58 -15l41 -2v-6z" />
    <glyph glyph-name="uacute" unicode="&#xfa;" horiz-adv-x="1120" 
d="M537 997h-9l150 383h158zM1071 0h-299v141q-100 -166 -268 -166q-141 0 -244 88q-102 88 -102 240v336q0 232 -32 258q-15 12 -56 14l-41 2v7h299v-619q0 -153 56 -227t153 -74q145 0 231 152v487q0 230 -34 258q-15 12 -58 14l-41 2v7h303v-639q0 -232 34 -258
q15 -12 58 -15l41 -2v-6z" />
    <glyph glyph-name="ucircumflex" unicode="&#xfb;" horiz-adv-x="1120" 
d="M283 997h-9l181 383h137l180 -383h-8l-242 297zM1071 0h-299v141q-100 -166 -268 -166q-141 0 -244 88q-102 88 -102 240v336q0 232 -32 258q-15 12 -56 14l-41 2v7h299v-619q0 -153 56 -227t153 -74q145 0 231 152v487q0 230 -34 258q-15 12 -58 14l-41 2v7h303v-639
q0 -232 34 -258q15 -12 58 -15l41 -2v-6z" />
    <glyph glyph-name="udieresis" unicode="&#xfc;" horiz-adv-x="1120" 
d="M764 1303q0 -47 -28 -76t-70 -29t-69 29q-28 29 -28 76t28 75t69 29q42 -1 70 -29t28 -75zM436 1303q0 -47 -28 -76t-69 -29q-42 0 -70 29t-27 76q0 47 28 75t68 29q42 -1 70 -29t28 -75zM1071 0h-299v141q-100 -166 -268 -166q-141 0 -244 88q-102 88 -102 240v336
q0 232 -32 258q-15 12 -56 14l-41 2v7h299v-619q0 -153 56 -227t153 -74q145 0 231 152v487q0 230 -34 258q-15 12 -58 14l-41 2v7h303v-639q0 -232 34 -258q15 -12 58 -15l41 -2v-6z" />
    <glyph glyph-name="yacute" unicode="&#xfd;" horiz-adv-x="948" 
d="M524 997h-8l150 383h157zM674 -426h-377v6l22 2q88 8 125 87t37 294v33l-311 692q-57 127 -89 173t-63 50l-16 2v7h401v-7l-36 -2q-35 -2 -51 -14t-15 -51q0 -39 53 -152l213 -477l154 385q47 111 41 208t-72 101l-35 2v7h291v-7l-16 -2q-45 -6 -85 -64t-114 -245
l-242 -606v-33q0 -215 37 -294t125 -87l23 -2v-6z" />
    <glyph glyph-name="thorn" unicode="&#xfe;" horiz-adv-x="1118" 
d="M1032 460q0 -208 -137 -346t-365 -139q-90 0 -178 25v-145q0 -232 34 -258q15 -12 58 -15l41 -2v-6h-436v6l41 2q43 2 58 14q34 28 34 259v1245q0 230 -34 258q-15 12 -58 14l-41 2v6h303v-460q88 25 178 24q230 0 366 -138t136 -346zM530 936q-90 0 -178 -27v-899
q98 -27 178 -26q304 0 304 476t-304 476z" />
    <glyph glyph-name="ydieresis" unicode="&#xff;" horiz-adv-x="948" 
d="M782 1303q0 -47 -28 -76t-69 -29q-42 0 -70 29t-27 76q0 47 28 75t68 29q42 -1 70 -29t28 -75zM455 1303q0 -47 -28 -76t-70 -29q-41 0 -69 29t-28 76t28 75t68 29q40 -1 70 -29q29 -28 29 -75zM674 -426h-377v6l22 2q88 8 125 87t37 294v33l-311 692q-57 127 -89 173
t-63 50l-16 2v7h401v-7l-36 -2q-35 -2 -51 -14t-15 -51q0 -39 53 -152l213 -477l154 385q47 111 41 208t-72 101l-35 2v7h291v-7l-16 -2q-45 -6 -85 -64t-114 -245l-242 -606v-33q0 -215 37 -294t125 -87l23 -2v-6z" />
    <glyph glyph-name="dotlessi" unicode="&#x131;" horiz-adv-x="497" 
d="M352 920v-639q0 -232 34 -258q15 -12 58 -15l41 -2v-6h-436v6l41 2q43 2 58 14q34 28 34 259v358q0 230 -34 258q-15 12 -58 14l-41 2v7h303z" />
    <glyph glyph-name="Lslash" unicode="&#x141;" horiz-adv-x="1202" 
d="M412 317q0 -211 14 -260t82 -49h164q111 0 174 26q134 55 244 390l22 70h6v-494h-1055v6l43 2q55 2 77 22q42 37 42 287v367l-198 -98l-4 8l202 98v371q0 250 -42 288q-22 19 -77 21l-43 2v6h510v-6l-43 -2q-54 -2 -76 -21q-42 -37 -42 -288v-279l319 158l4 -6l-323 -160
v-459z" />
    <glyph glyph-name="lslash" unicode="&#x142;" horiz-adv-x="497" 
d="M164 1100q0 230 -34 258q-15 12 -58 14l-41 2v6h303v-501l143 77v-8l-143 -80v-587q0 -232 34 -258q15 -12 58 -15l41 -2v-6h-436v6l41 2q43 2 58 14q34 28 34 259v493l-144 -78v11l144 77v316z" />
    <glyph glyph-name="OE" unicode="&#x152;" horiz-adv-x="2164" 
d="M1991 0h-1223q-158 0 -288 59t-214 157q-174 204 -174 480q0 275 183 480t493 204h1182v-370h-6l-23 69q-61 188 -173 246q-56 29 -110 38t-135 9h-112q-68 0 -82 -49t-15 -260v-350h117q151 0 210 84q28 39 44 100l12 45h6v-467h-6l-12 45q-32 122 -109 157
q-57 26 -145 28h-117v-388q0 -211 14 -260t83 -49h153q112 0 178 22q147 49 240 332l23 70h6v-432zM768 8h221q78 0 98 51t21 258v746q0 207 -20 258t-99 51h-221q-127 0 -220 -56q-168 -101 -221 -372q-24 -117 -24 -253q0 -277 99 -469q52 -98 146 -156t220 -58z" />
    <glyph glyph-name="oe" unicode="&#x153;" horiz-adv-x="1781" 
d="M1468 530q0 166 -34 275q-42 131 -184 131t-189 -99t-49 -307h456zM799 457q1 225 -57 352t-208 127t-206 -125q-57 -125 -58 -352q0 -350 133 -442q53 -36 132 -35q150 0 207 125t57 350zM542 -27q-218 -1 -344 143t-126 345t126 342t339 141t362 -194q61 90 153 142
t197 52q211 0 311 -114t101 -308h-649v-49q0 -341 143 -433q66 -42 166 -42q268 0 328 246l10 -2q-59 -268 -379 -269q-229 0 -375 203q-145 -203 -363 -203z" />
    <glyph glyph-name="Scaron" unicode="&#x160;" horiz-adv-x="1345" 
d="M887 1702h8l-119 -252h-178l-119 252h8l199 -189zM332 84q-57 0 -144 -111h-4v459h6l25 -76q87 -256 282 -340q83 -35 183 -34q145 0 232 68t87 192q1 126 -77 206t-190 132l-224 104q-112 53 -189 143q-78 90 -77 217q0 160 116 262q117 101 287 101q127 0 234 -70
q41 -29 67 -28q45 0 125 98h4v-397h-6l-22 71q-45 150 -154 234t-239 84q-130 -1 -200 -61t-69 -155q0 -95 42 -163t111 -112t222 -119t231 -131q162 -116 162 -296t-133 -284t-338 -105q-152 0 -274 80q-47 31 -76 31z" />
    <glyph glyph-name="scaron" unicode="&#x161;" horiz-adv-x="856" 
d="M682 1401h8l-180 -383h-137l-180 383h8l239 -299zM639 153q0 81 -53 130t-129 79t-151 67t-128 103t-53 168t80 174q80 70 182 70t176 -47q27 -18 49 -18t76 65h6v-268h-10l-14 47q-31 101 -103 157q-71 56 -159 56t-134 -40t-47 -112t53 -122t131 -82q77 -33 153 -70
t129 -107q55 -69 55 -177t-92 -180t-210 -73q-118 0 -208 54q-41 23 -52 22q-37 0 -96 -76h-8v310h12l15 -47q33 -104 109 -180q76 -74 190 -74t173 45q58 45 58 126z" />
    <glyph glyph-name="Ydieresis" unicode="&#x178;" horiz-adv-x="1314" 
d="M950 1575q0 -47 -28 -76t-69 -29q-42 0 -70 29t-27 76q0 47 27 76q28 29 69 29t70 -29q28 -29 28 -76zM623 1575q0 -47 -28 -76t-70 -29q-41 0 -69 29t-28 76t28 76t68 29t70 -30q29 -28 29 -75zM1024 1231q0 65 -24 101t-91 40l-43 2v6h447v-6l-43 -2q-56 -2 -118 -82
t-257 -385l-147 -227v-361q0 -249 42 -287q22 -19 76 -22l43 -2v-6h-510v6l43 2q55 2 77 22q42 37 42 287v355l-237 364q-48 69 -112 175q-64 105 -99 129q-10 8 -26 20t-48 12l-37 2v6h506v-6l-43 -2q-88 -6 -72 -80q14 -57 131 -245l219 -357l144 219q137 209 137 322z
" />
    <glyph glyph-name="Zcaron" unicode="&#x17d;" horiz-adv-x="1269" 
d="M856 1702h8l-119 -252h-178l-118 252h8l198 -189zM631 1372q-84 0 -132 -8q-134 -22 -205 -139q-42 -70 -81 -187l-23 -69h-6v411h922v-26l-774 -1346h373q165 0 253 67t160 287l23 70h6v-432h-1004v27l756 1345h-268z" />
    <glyph glyph-name="zcaron" unicode="&#x17e;" horiz-adv-x="933" 
d="M713 1401h8l-180 -383h-138l-180 383h8l240 -299zM813 920v-19l-526 -893h258q121 0 177 53t95 181l17 51h6v-293h-731v18l520 893h-195q-117 0 -175 -49t-101 -168l-17 -45h-6v271h678z" />
    <glyph glyph-name="florin" unicode="&#x192;" horiz-adv-x="1112" 
d="M334 -166v664h-178v8h178v156q0 174 111 276q112 102 290 102q117 0 205 -55t88 -131q0 -45 -30 -74q-30 -28 -76 -28t-75 30q-30 30 -30 69q0 40 23 77t22 47q0 23 -41 40t-86 17q-133 0 -178 -56t-45 -214v-256h356v-8h-356v-570q0 -143 -83 -232t-222 -89
q-92 0 -150 50q-57 50 -57 124q0 41 27 67t67 25q40 0 69 -27q27 -26 27 -62t-20 -70t-20 -44q0 -55 64 -55t92 50t28 169z" />
    <glyph glyph-name="commaaccent.alt" unicode="&#x2bb;" 
d="M860 0h-692v1382h692v-1382zM223 1303v-859l252 -247v125l-168 221v151l414 -411v-125l80 -84v512l-80 80v-156l-414 412v133l168 -111v111z" />
    <glyph glyph-name="commaaccent.alt" unicode="&#xe026;" 
d="M860 0h-692v1382h692v-1382zM223 1303v-859l252 -247v125l-168 221v151l414 -411v-125l80 -84v512l-80 80v-156l-414 412v133l168 -111v111z" />
    <glyph glyph-name="commaaccent.alt" unicode="&#x312;" 
d="M860 0h-692v1382h692v-1382zM223 1303v-859l252 -247v125l-168 221v151l414 -411v-125l80 -84v512l-80 80v-156l-414 412v133l168 -111v111z" />
    <glyph glyph-name="circumflex" unicode="&#x2c6;" 
d="M270 997h-8l180 383h138l180 -383h-8l-242 297z" />
    <glyph glyph-name="circumflex" unicode="&#x302;" 
d="M270 997h-8l180 383h138l180 -383h-8l-242 297z" />
    <glyph glyph-name="caron" unicode="&#x2c7;" 
d="M752 1401h8l-180 -383h-138l-180 383h8l240 -299z" />
    <glyph glyph-name="caron" unicode="&#x30c;" 
d="M752 1401h8l-180 -383h-138l-180 383h8l240 -299z" />
    <glyph glyph-name="breve" unicode="&#x2d8;" 
d="M512 1223q115 -1 170 33t59 124h9q-8 -274 -238 -274t-238 274h9q4 -90 59 -124t170 -33z" />
    <glyph glyph-name="breve" unicode="&#x306;" 
d="M512 1223q115 -1 170 33t59 124h9q-8 -274 -238 -274t-238 274h9q4 -90 59 -124t170 -33z" />
    <glyph glyph-name="dotaccent" unicode="&#x2d9;" 
d="M608 1303q0 -47 -28 -76t-69 -29q-42 0 -70 29t-27 76q0 47 28 75t68 29q42 -1 70 -29t28 -75z" />
    <glyph glyph-name="dotaccent" unicode="&#x307;" 
d="M608 1303q0 -47 -28 -76t-69 -29q-42 0 -70 29t-27 76q0 47 28 75t68 29q42 -1 70 -29t28 -75z" />
    <glyph glyph-name="ring" unicode="&#x2da;" 
d="M729 1210q0 -84 -59 -140q-58 -56 -156 -56t-159 56q-60 56 -60 140t60 140q59 56 157 57q98 0 158 -56q59 -57 59 -141zM631 1209q0 77 -30 133t-89 56t-88 -54q-29 -56 -29 -133t30 -133t88 -56t88 55t30 132z" />
    <glyph glyph-name="ring" unicode="&#x30a;" 
d="M729 1210q0 -84 -59 -140q-58 -56 -156 -56t-159 56q-60 56 -60 140t60 140q59 56 157 57q98 0 158 -56q59 -57 59 -141zM631 1209q0 77 -30 133t-89 56t-88 -54q-29 -56 -29 -133t30 -133t88 -56t88 55t30 132z" />
    <glyph glyph-name="ogonek" unicode="&#x2db;" 
d="M569 -416q43 0 74 41l6 -4q-31 -45 -103 -45t-122 40q-51 40 -51 114q0 38 13 66q23 51 133 127q30 22 116 81l10 -4q-96 -78 -132 -126t-36 -112t4 -94q5 -32 25 -58t63 -26z" />
    <glyph glyph-name="ogonek" unicode="&#x328;" 
d="M569 -416q43 0 74 41l6 -4q-31 -45 -103 -45t-122 40q-51 40 -51 114q0 38 13 66q23 51 133 127q30 22 116 81l10 -4q-96 -78 -132 -126t-36 -112t4 -94q5 -32 25 -58t63 -26z" />
    <glyph glyph-name="tilde" unicode="&#x2dc;" 
d="M629 1139q-33 1 -134 33t-139 32q-68 0 -88 -63q-8 -25 -18 -76h-8q14 135 52 193t101 59q33 0 133 -33t138 -33q68 0 88 64q8 25 18 76h8q-14 -135 -51 -193t-100 -59z" />
    <glyph glyph-name="tilde" unicode="&#x303;" 
d="M629 1139q-33 1 -134 33t-139 32q-68 0 -88 -63q-8 -25 -18 -76h-8q14 135 52 193t101 59q33 0 133 -33t138 -33q68 0 88 64q8 25 18 76h8q-14 -135 -51 -193t-100 -59z" />
    <glyph glyph-name="hungarumlaut" unicode="&#x2dd;" 
d="M530 997h-8l150 383h157zM203 997h-8l149 383h158z" />
    <glyph glyph-name="hungarumlaut" unicode="&#x30b;" 
d="M530 997h-8l150 383h157zM203 997h-8l149 383h158z" />
    <glyph glyph-name="commaaccent" unicode="&#x326;" 
d="M860 0h-692v1382h692v-1382zM223 1303v-859l252 -247v125l-168 221v151l414 -411v-125l80 -84v512l-80 80v-156l-414 412v133l168 -111v111z" />
    <glyph glyph-name="pi" unicode="&#x3c0;" 
d="M860 0h-692v1382h692v-1382zM223 1303v-859l252 -247v125l-168 221v151l414 -411v-125l80 -84v512l-80 80v-156l-414 412v133l168 -111v111z" />
    <glyph glyph-name="endash" unicode="&#x2013;" 
d="M983 467h-942v20h942v-20z" />
    <glyph glyph-name="emdash" unicode="&#x2014;" horiz-adv-x="2048" 
d="M2007 467h-1966v20h1966v-20z" />
    <glyph glyph-name="quoteleft" unicode="&#x2018;" horiz-adv-x="512" 
d="M369 1064q0 -40 -25 -67t-74 -27t-89 50q-40 49 -40 148q1 99 61 165t197 66v-8q-113 -1 -173 -51t-60 -138q0 -59 49 -59l59 10q45 0 70 -24q25 -25 25 -65z" />
    <glyph glyph-name="quoteright" unicode="&#x2019;" horiz-adv-x="512" 
d="M143 1286q0 40 25 68q25 26 74 26t89 -49t40 -148q-1 -99 -61 -165t-197 -66v9q113 0 173 50t60 138q0 59 -49 59l-59 -10q-45 0 -70 24t-25 64z" />
    <glyph glyph-name="quotesinglbase" unicode="&#x201a;" horiz-adv-x="512" 
d="M145 132q0 40 25 67t74 27t89 -50q40 -49 40 -148q-1 -99 -61 -165t-197 -66v8q113 1 173 51t60 138q0 59 -49 59l-59 -10q-45 0 -70 24q-25 25 -25 65z" />
    <glyph glyph-name="quotedblleft" unicode="&#x201c;" horiz-adv-x="839" 
d="M162 1168q0 99 60 165t198 66v-8q-113 -1 -173 -51t-61 -138q0 -59 50 -59l59 10q45 0 70 -24q25 -25 25 -65t-26 -67q-24 -27 -73 -27t-89 50q-40 49 -40 148zM469 1168q0 99 60 165t198 66v-8q-113 -1 -173 -51t-60 -138q0 -59 49 -59l59 10q45 0 70 -24q24 -25 24 -65
t-24 -67t-74 -27q-49 0 -89 50q-40 49 -40 148z" />
    <glyph glyph-name="quotedblright" unicode="&#x201d;" horiz-adv-x="839" 
d="M684 1183q0 -99 -60 -165t-198 -66v9q113 0 173 50t60 138q0 59 -49 59l-59 -10q-45 0 -70 24t-25 64t25 68q25 26 74 26t89 -49t40 -148zM377 1183q-1 -99 -61 -165t-197 -66v9q113 0 173 50t60 138q0 59 -49 59l-59 -10q-45 0 -70 24q-24 24 -24 64t24 68q25 26 74 26
t89 -49t40 -148z" />
    <glyph glyph-name="quotedblbase" unicode="&#x201e;" horiz-adv-x="839" 
d="M684 30q0 -99 -60 -165t-198 -66v8q113 1 173 51t60 138q0 59 -49 59l-59 -10q-45 0 -70 24q-25 25 -25 65t25 67t74 27t89 -50q40 -49 40 -148zM377 30q-1 -99 -61 -165t-197 -66v8q113 1 173 51t60 138q0 59 -49 59l-59 -10q-45 0 -70 24q-24 25 -24 65t24 67
q25 27 74 27t89 -50q40 -49 40 -148z" />
    <glyph glyph-name="dagger" unicode="&#x2020;" horiz-adv-x="602" 
d="M150 1161q0 -78 102 -78q14 0 39 2q0 45 -39 84q25 74 24 152q0 45 -36 45q20 41 62 41t67 -41q-23 0 -31 -10t-8 -62t24 -125q-37 -41 -37 -82q37 5 70 5q113 0 113 -50q0 -37 -41 -36q-31 0 -31 26l2 15q0 14 -45 14t-68 -2q4 -63 45 -92l-24 -914q0 -39 -35 -84
q-35 51 -35 84l-20 914q35 25 43 88q-61 -4 -68 -4q-121 0 -121 90q0 72 58 151q23 37 45 39l2 -16q-57 -95 -57 -154z" />
    <glyph glyph-name="daggerdbl" unicode="&#x2021;" 
d="M860 0h-692v1382h692v-1382zM223 1303v-859l252 -247v125l-168 221v151l414 -411v-125l80 -84v512l-80 80v-156l-414 412v133l168 -111v111z" />
    <glyph glyph-name="bullet" unicode="&#x2022;" horiz-adv-x="700" 
d="M160 476q0 83 53 137q53 55 135 55t137 -56t55 -137q0 -82 -54 -135t-137 -53t-136 53t-53 136z" />
    <glyph glyph-name="ellipsis" unicode="&#x2026;" horiz-adv-x="2048" 
d="M1804 114q0 -50 -28 -82t-75 -32q-46 0 -75 32t-29 82t29 81t75 31t75 -31q28 -31 28 -81zM1128 114q0 -50 -28 -82t-75 -32q-46 0 -75 32q-28 32 -28 82t28 81q29 31 75 31t75 -31q28 -31 28 -81zM453 114q0 -50 -29 -82t-75 -32t-75 32q-28 32 -28 82t28 81
q29 31 75 31t75 -32q29 -30 29 -80z" />
    <glyph glyph-name="perthousand" unicode="&#x2030;" 
d="M860 0h-692v1382h692v-1382zM223 1303v-859l252 -247v125l-168 221v151l414 -411v-125l80 -84v512l-80 80v-156l-414 412v133l168 -111v111z" />
    <glyph glyph-name="guilsinglleft" unicode="&#x2039;" horiz-adv-x="512" 
d="M260 477q14 -83 58 -195t92 -184h-9q-137 195 -340 379q203 184 340 379h9q-48 -72 -92 -184t-58 -195z" />
    <glyph glyph-name="guilsinglright" unicode="&#x203a;" horiz-adv-x="512" 
d="M252 477q-14 82 -58 195t-92 184h9q137 -195 340 -379q-203 -184 -340 -379h-9q48 72 92 184t58 195z" />
    <glyph glyph-name="fraction" unicode="&#x2044;" 
d="M860 0h-692v1382h692v-1382zM223 1303v-859l252 -247v125l-168 221v151l414 -411v-125l80 -84v512l-80 80v-156l-414 412v133l168 -111v111z" />
    <glyph glyph-name="Euro" unicode="&#x20ac;" horiz-adv-x="1251" 
d="M102 432h144q-2 24 -2 86t14 127h-156v8h158q37 172 155 280t312 107q131 0 231 -61t101 -137q0 -41 -29 -69t-72 -28q-42 0 -70 28t-28 66q0 39 20 73t21 44q0 27 -48 52t-126 24q-240 0 -276 -379h405v-8h-405q-11 -135 -5 -213h410v-8h-410q8 -179 69 -303
q68 -141 212 -139q80 0 140 26t61 51q0 10 -24 47t-24 77t30 70t76 30t76 -29t30 -74q0 -76 -116 -142t-249 -65q-213 0 -335 128t-144 323h-146v8z" />
    <glyph glyph-name="litre" unicode="&#x2113;" 
d="M860 0h-692v1382h692v-1382zM223 1303v-859l252 -247v125l-168 221v151l414 -411v-125l80 -84v512l-80 80v-156l-414 412v133l168 -111v111z" />
    <glyph glyph-name="numero" unicode="&#x2116;" 
d="M860 0h-692v1382h692v-1382zM223 1303v-859l252 -247v125l-168 221v151l414 -411v-125l80 -84v512l-80 80v-156l-414 412v133l168 -111v111z" />
    <glyph glyph-name="published" unicode="&#x2117;" horiz-adv-x="1603" 
d="M1010 848q0 66 -45 104t-125 37h-154v-282h154q170 0 170 141zM1149 848q0 -116 -78 -184t-215 -68h-170v-297h-135v801h305q137 0 215 -68t78 -184zM1386 690q0 240 -171 409t-413 169t-414 -169q-171 -169 -171 -409t172 -410t414 -169q243 -1 413 169t170 410z
M1497 690q0 -288 -203 -492q-204 -204 -492 -204t-492 205t-204 493t204 490t493 202t491 -202t203 -492z" />
    <glyph glyph-name="published" unicode="&#xe039;" horiz-adv-x="1603" 
d="M1010 848q0 66 -45 104t-125 37h-154v-282h154q170 0 170 141zM1149 848q0 -116 -78 -184t-215 -68h-170v-297h-135v801h305q137 0 215 -68t78 -184zM1386 690q0 240 -171 409t-413 169t-414 -169q-171 -169 -171 -409t172 -410t414 -169q243 -1 413 169t170 410z
M1497 690q0 -288 -203 -492q-204 -204 -492 -204t-492 205t-204 493t204 490t493 202t491 -202t203 -492z" />
    <glyph glyph-name="trademark" unicode="&#x2122;" horiz-adv-x="1875" 
d="M788 1262h-294v-682h-136v682h-297v118h727v-118zM1692 580h-136v575l-206 -332h-107l-207 332v-575h-127v813h140l256 -418l262 418h125v-813z" />
    <glyph glyph-name="Omega" unicode="&#x2126;" 
d="M860 0h-692v1382h692v-1382zM223 1303v-859l252 -247v125l-168 221v151l414 -411v-125l80 -84v512l-80 80v-156l-414 412v133l168 -111v111z" />
    <glyph glyph-name="estimated" unicode="&#x212e;" 
d="M860 0h-692v1382h692v-1382zM223 1303v-859l252 -247v125l-168 221v151l414 -411v-125l80 -84v512l-80 80v-156l-414 412v133l168 -111v111z" />
    <glyph glyph-name="partialdiff" unicode="&#x2202;" 
d="M860 0h-692v1382h692v-1382zM223 1303v-859l252 -247v125l-168 221v151l414 -411v-125l80 -84v512l-80 80v-156l-414 412v133l168 -111v111z" />
    <glyph glyph-name="Delta" unicode="&#x2206;" 
d="M860 0h-692v1382h692v-1382zM223 1303v-859l252 -247v125l-168 221v151l414 -411v-125l80 -84v512l-80 80v-156l-414 412v133l168 -111v111z" />
    <glyph glyph-name="product" unicode="&#x220f;" 
d="M860 0h-692v1382h692v-1382zM223 1303v-859l252 -247v125l-168 221v151l414 -411v-125l80 -84v512l-80 80v-156l-414 412v133l168 -111v111z" />
    <glyph glyph-name="summation" unicode="&#x2211;" 
d="M860 0h-692v1382h692v-1382zM223 1303v-859l252 -247v125l-168 221v151l414 -411v-125l80 -84v512l-80 80v-156l-414 412v133l168 -111v111z" />
    <glyph glyph-name="minus" unicode="&#x2212;" 
d="M983 461h-942v112h942v-112z" />
    <glyph glyph-name="radical" unicode="&#x221a;" 
d="M860 0h-692v1382h692v-1382zM223 1303v-859l252 -247v125l-168 221v151l414 -411v-125l80 -84v512l-80 80v-156l-414 412v133l168 -111v111z" />
    <glyph glyph-name="infinity" unicode="&#x221e;" 
d="M860 0h-692v1382h692v-1382zM223 1303v-859l252 -247v125l-168 221v151l414 -411v-125l80 -84v512l-80 80v-156l-414 412v133l168 -111v111z" />
    <glyph glyph-name="integral" unicode="&#x222b;" 
d="M860 0h-692v1382h692v-1382zM223 1303v-859l252 -247v125l-168 221v151l414 -411v-125l80 -84v512l-80 80v-156l-414 412v133l168 -111v111z" />
    <glyph glyph-name="approxequal" unicode="&#x2248;" 
d="M860 0h-692v1382h692v-1382zM223 1303v-859l252 -247v125l-168 221v151l414 -411v-125l80 -84v512l-80 80v-156l-414 412v133l168 -111v111z" />
    <glyph glyph-name="notequal" unicode="&#x2260;" 
d="M860 0h-692v1382h692v-1382zM223 1303v-859l252 -247v125l-168 221v151l414 -411v-125l80 -84v512l-80 80v-156l-414 412v133l168 -111v111z" />
    <glyph glyph-name="lessequal" unicode="&#x2264;" 
d="M860 0h-692v1382h692v-1382zM223 1303v-859l252 -247v125l-168 221v151l414 -411v-125l80 -84v512l-80 80v-156l-414 412v133l168 -111v111z" />
    <glyph glyph-name="greaterequal" unicode="&#x2265;" 
d="M860 0h-692v1382h692v-1382zM223 1303v-859l252 -247v125l-168 221v151l414 -411v-125l80 -84v512l-80 80v-156l-414 412v133l168 -111v111z" />
    <glyph glyph-name="lozenge" unicode="&#x25ca;" 
d="M860 0h-692v1382h692v-1382zM223 1303v-859l252 -247v125l-168 221v151l414 -411v-125l80 -84v512l-80 80v-156l-414 412v133l168 -111v111z" />
    <glyph glyph-name="grave.cap" unicode="&#xe01a;" 
d="M666 1427h-9l-299 252h179z" />
    <glyph glyph-name="acute.cap" unicode="&#xe01b;" 
d="M367 1427h-9l129 252h179z" />
    <glyph glyph-name="circumflex.cap" unicode="&#xe01c;" 
d="M311 1427h-8l119 252h178l119 -252h-8l-201 187z" />
    <glyph glyph-name="caron.cap" unicode="&#xe01d;" 
d="M711 1702h8l-119 -252h-178l-119 252h8l199 -189z" />
    <glyph glyph-name="tilde.cap" unicode="&#xe01f;" 
d="M614 1475q-30 1 -122 33t-121 32q-55 0 -72 -45q-8 -27 -14 -63h-9q23 221 134 221q30 0 122 -33t121 -33q55 0 72 45q8 27 14 64h9q-23 -221 -134 -221z" />
    <glyph glyph-name="dieresis.cap" unicode="&#xe020;" 
d="M772 1575q0 -47 -28 -76t-70 -29t-69 29q-28 29 -27 76q0 47 27 76q28 29 69 29q42 0 70 -30q28 -28 28 -75zM444 1575q0 -47 -28 -76t-69 -29t-69 29t-28 76t28 76t68 29t70 -29q28 -29 28 -76z" />
    <glyph glyph-name="macron.cap" unicode="&#xe021;" 
d="M770 1534h-516v104h516v-104z" />
    <glyph glyph-name="breve.cap" unicode="&#xe022;" 
d="M512 1565q113 1 169 31t60 106h9q-8 -254 -238 -254t-238 254h9q4 -76 60 -106t169 -31z" />
    <glyph glyph-name="ring.cap" unicode="&#xe023;" 
d="M690 1606q0 -68 -49 -113t-128 -45t-129 45t-50 113t49 112t128 45q79 -1 129 -45t50 -112zM598 1604q0 148 -85 149q-85 -1 -85 -149t85 -148t85 148z" />
    <glyph glyph-name="hungarumlaut.cap" unicode="&#xe024;" 
d="M530 1427h-8l129 252h178zM203 1427h-8l129 252h178z" />
    <glyph glyph-name="dotaccent.cap" unicode="&#xe025;" 
d="M608 1575q0 -47 -28 -76t-69 -29q-42 0 -70 29t-27 76q0 47 27 76q28 29 69 29t70 -29q28 -29 28 -76z" />
    <glyph glyph-name="hyphen.cap" unicode="&#xe027;" horiz-adv-x="512" 
d="M471 629h-430v121h430v-121z" />
    <glyph glyph-name="exclamdown.cap" unicode="&#xe028;" horiz-adv-x="512" 
d="M254 922v125h8v-125q0 -156 46 -410t46 -367q0 -43 -26 -69t-70 -27q-45 0 -72 27t-26 69q0 113 47 367t47 410zM152 1316q0 50 28 82q29 32 75 32t75 -32q28 -32 28 -82t-28 -81t-75 -31q-46 0 -75 31q-28 31 -28 81z" />
    <glyph glyph-name="questiondown.cap" unicode="&#xe029;" horiz-adv-x="899" 
d="M531 1206q-47 0 -75 31t-28 81t29 82t75 32t74 -32q29 -32 29 -82t-29 -81t-75 -31zM512 25q-154 0 -279 88t-124 256q0 135 97 226t304 189q66 31 92 61t27 81q0 51 -48 81t-116 29h-23v8h23q68 0 121 -30t53 -86q0 -55 -29 -87t-95 -64q-129 -62 -165 -167
q-37 -105 -37 -235q0 -342 230 -342q73 1 111 27t38 46t-22 58q-23 37 -23 76q0 38 30 68t76 30q45 0 75 -29t30 -73q0 -88 -96 -150q-96 -61 -250 -61z" />
    <glyph glyph-name="guilsinglleft.cap" unicode="&#xe02a;" horiz-adv-x="512" 
d="M260 690q14 -82 58 -194t92 -185h-9q-137 195 -340 379q203 184 340 379h9q-48 -73 -92 -185t-58 -194z" />
    <glyph glyph-name="guilsinglright.cap" unicode="&#xe02b;" horiz-adv-x="512" 
d="M252 690q-14 82 -58 195t-92 184h9q137 -195 340 -379q-203 -184 -340 -379h-9q48 73 92 185t58 194z" />
    <glyph glyph-name="guillemotleft.cap" unicode="&#xe02c;" horiz-adv-x="839" 
d="M588 690q14 -82 58 -194t91 -185h-8q-137 195 -340 379q203 184 340 379h8q-47 -73 -91 -185t-58 -194zM260 690q14 -82 58 -194t92 -185h-9q-137 195 -340 379q203 184 340 379h9q-48 -73 -92 -185t-58 -194z" />
    <glyph glyph-name="guillemotright.cap" unicode="&#xe02d;" horiz-adv-x="839" 
d="M252 690q-14 82 -58 195t-92 184h9q137 -195 340 -379q-203 -184 -340 -379h-9q48 73 92 185t58 194zM580 690q-14 82 -59 195q-44 113 -91 184h8q137 -195 340 -379q-203 -184 -340 -379h-8q48 73 92 185t58 194z" />
    <glyph glyph-name="endash.cap" unicode="&#xe02e;" 
d="M983 680h-942v20h942v-20z" />
    <glyph glyph-name="emdash.cap" unicode="&#xe02f;" horiz-adv-x="2048" 
d="M2007 680h-1966v20h1966v-20z" />
    <glyph glyph-name="periodcentered.cap" unicode="&#xe031;" horiz-adv-x="512" 
d="M255 803q47 0 75 -31t28 -81t-28 -82q-28 -31 -75 -31q-46 0 -75 32q-28 32 -28 81q0 50 28 81q29 31 75 31z" />
    <glyph glyph-name="parenleft.cap" unicode="&#xe032;" horiz-adv-x="628" 
d="M94 691q0 181 45 337t121 264q147 208 330 301h8q-158 -106 -256 -330q-98 -225 -98 -573t98 -574t256 -329h-8q-182 97 -327 301q-77 108 -123 266q-46 156 -46 337z" />
    <glyph glyph-name="parenright.cap" unicode="&#xe033;" horiz-adv-x="628" 
d="M211 -92q-82 -74 -172 -121h-8q158 107 256 331t98 572t-98 574t-256 329h8q88 -47 169 -119q327 -295 327 -786q0 -492 -324 -780z" />
    <glyph glyph-name="bracketleft.cap" unicode="&#xe034;" horiz-adv-x="628" 
d="M428 -205h160v-8h-410v1806h410v-8h-160q-68 0 -82 -49t-14 -260v-1172q0 -211 14 -260t82 -49z" />
    <glyph glyph-name="bracketright.cap" unicode="&#xe035;" horiz-adv-x="628" 
d="M201 1585h-160v8h410v-1806h-410v8h160q68 0 82 49t14 260v1172q0 211 -14 260t-82 49z" />
    <glyph glyph-name="at.cap" unicode="&#xe038;" horiz-adv-x="1605" 
d="M1143 559q0 -137 16 -193t70 -57q83 0 151 111t68 305q0 372 -206 554q-189 169 -448 169q-258 0 -432 -194t-174 -545t167 -557t471 -205q304 0 497 182l6 -8q-193 -184 -519 -184q-326 -1 -513 209q-188 210 -188 552q0 205 76 374q77 169 239 277t383 107
q311 0 495 -195q183 -196 183 -513q0 -193 -81 -321t-196 -128q-170 0 -215 133q-89 -147 -241 -147t-238 63t-86 174q0 223 342 223q121 0 219 -45v252q0 199 -203 199q-139 0 -139 -51q1 -10 21 -44t20 -70t-28 -62t-68 -27q-40 0 -68 26q-27 26 -26 66q0 74 75 122
q76 48 217 48q140 0 246 -76t107 -215v-309zM600 512q0 -203 188 -203q59 0 115 38q55 38 86 97v246q-100 45 -194 45q-195 0 -195 -223z" />
    <glyph glyph-name="c_t" unicode="&#xe08c;" horiz-adv-x="1736" 
d="M1370 1040v-120h236v-9h-236v-628q0 -206 54 -256q28 -27 71 -27q131 0 131 201h8q0 -105 -40 -165t-150 -60t-176 80q-68 81 -68 227v628h-145v9h145v120q0 176 -76 268t-222 91q-146 0 -236 -76t-90 -198t79 -191q109 -20 170 -78t61 -116q0 -56 -30 -87
q-31 -31 -79 -31t-80 32q-62 59 -8 158q24 42 24 54q0 70 -160 70q-141 0 -213 -98t-72 -363q0 -266 77 -372q32 -45 90 -75t138 -30q264 0 324 246l10 -2q-59 -268 -375 -269q-216 1 -338 143t-122 346t123 343t358 139q53 0 92 -8q-100 84 -100 198t104 193q104 80 254 80
q205 1 336 -99t131 -268z" />
    <glyph glyph-name="germandbls.cap" unicode="&#xe0aa;" horiz-adv-x="2629" 
d="M1610 84q-57 0 -144 -111h-4v459h6l25 -76q87 -256 282 -340q83 -35 183 -34q145 0 232 68t87 192q1 126 -77 206t-190 132l-224 104q-112 53 -189 143q-78 90 -77 217q0 160 116 262q117 101 287 101q127 0 234 -70q41 -29 67 -28q45 0 125 98h4v-397h-6l-23 71
q-45 150 -153 234q-109 84 -239 84q-130 -1 -200 -61t-69 -155q0 -95 42 -163t111 -112t222 -119t231 -131q162 -116 162 -296t-133 -284t-338 -105q-152 0 -274 80q-47 31 -76 31zM326 84q-57 0 -144 -111h-4v459h6l25 -76q86 -256 281 -340q83 -35 184 -34q145 0 232 68
t87 192q0 126 -78 206q-77 80 -189 132l-224 104q-112 53 -189 143q-78 90 -77 217q0 160 116 262q117 101 287 101q127 0 233 -70q41 -29 68 -28q45 0 125 98h4v-397h-6l-23 71q-45 150 -153 234q-109 84 -239 84q-130 -1 -200 -61t-69 -155q0 -177 152 -275
q69 -44 221 -118t232 -131q163 -117 163 -297t-133 -284t-338 -105q-152 0 -275 80q-45 31 -75 31z" />
    <glyph glyph-name="E.alt" unicode="&#xe0b5;" horiz-adv-x="1949" 
d="M63 0v6l43 2q55 2 77 22q42 37 42 287v746q0 250 -42 288q-22 19 -77 21l-43 2v6h1004v-370h-6l-23 69q-61 189 -173 246q-56 29 -110 38t-134 9h-113q-68 0 -82 -49t-14 -260v-350h116q153 0 210 84q28 39 44 100l13 45h6v-467h-6l-13 45q-32 121 -108 157
q-57 26 -146 28h-116v-388q0 -211 14 -260t82 -49h706q274 0 469 146t195 381q0 55 -23 104t-67 49q-20 0 -59 -24t-82 -25q-43 0 -75 33t-32 83t35 83t86 32q111 0 169 -101t58 -240t-58 -248t-158 -168q-191 -113 -458 -113h-1151z" />
    <glyph glyph-name="G.alt" unicode="&#xe0b6;" horiz-adv-x="1421" 
d="M1233 340v-406q0 -256 -144 -414t-346 -159q-141 0 -227 60t-86 137q0 49 32 81q32 31 80 31t80 -30t32 -73q0 -42 -24 -81q-24 -38 -24 -58t35 -39t104 -20q162 0 231 127t68 420v164q-147 -106 -309 -107q-205 1 -355 105t-218 263q-70 159 -70 348t70 349t219 265
q150 104 354 104q135 0 240 -70q41 -29 65 -28q45 0 127 98h4v-397h-6l-22 69q-45 139 -149 229t-238 91q-136 1 -224 -59q-155 -105 -206 -388q-23 -121 -23 -262q0 -282 93 -486q103 -222 356 -222q132 0 243 79q35 25 43 56t9 114v109q0 113 -5 167q-4 54 -28 89
q-25 35 -59 42t-109 11l-43 2v6h592v-6l-43 -2q-55 -2 -77 -21q-42 -36 -42 -288z" />
    <glyph glyph-name="J.alt" unicode="&#xe0b7;" horiz-adv-x="636" 
d="M412 1063v-1036q0 -309 -140 -487t-391 -179q-143 0 -229 62t-86 145q0 49 33 81t83 32t82 -32t33 -76q-1 -44 -25 -85q-24 -40 -24 -60t33 -39t102 -20q197 0 270 138t72 520v1036q0 250 -42 288q-22 19 -77 21l-43 2v6h510v-6l-43 -2q-54 -2 -76 -21q-42 -37 -42 -288z
" />
    <glyph glyph-name="K.alt" unicode="&#xe0b8;" horiz-adv-x="1400" 
d="M1885 -475q169 1 261 109t92 284h11q0 -233 -124 -395t-326 -162t-344 116q-73 60 -126 114q-118 120 -349 555q-112 214 -149 267q-37 52 -69 98q-33 46 -63 72q-29 27 -63 53q-61 48 -140 48h-84v-367q0 -249 42 -287q22 -19 76 -22l43 -2v-6h-510v6l43 2q55 2 77 22
q42 37 42 287v746q0 250 -42 288q-22 19 -77 21l-43 2v6h510v-6l-43 -2q-54 -2 -76 -21q-42 -37 -42 -288v-371h41q61 0 113 41t194 191l65 69q158 170 158 289q2 84 -86 90l-43 2v6h539v-6l-43 -2q-84 -4 -195 -80t-321 -299l-68 -71q-4 -4 -46 -50t-93 -94
q-81 -78 -127 -88q109 0 205 -54q49 -28 95 -58t139 -130q92 -100 235 -309q237 -348 390 -481q152 -133 321 -133z" />
    <glyph glyph-name="Q.alt" unicode="&#xe0b9;" horiz-adv-x="1536" 
d="M768 -18q66 0 127 16q-29 55 -59 114t-63 91q-69 65 -132 65q-141 0 -149 -186q110 -100 276 -100zM1233 690q0 292 -99 492q-52 102 -146 159t-220 57q-127 0 -220 -56q-169 -104 -221 -383q-24 -122 -24 -269q0 -428 182 -602q10 205 191 205q68 0 134 -41t102 -82
t94 -117q227 158 227 637zM1720 -475q170 1 262 109t93 284h10q0 -233 -124 -395t-341 -162q-100 0 -194 39t-162 96q-70 57 -151 161t-210 329q-63 -12 -135 -13q-311 0 -494 211q-182 211 -182 508t182 506t494 209t494 -209t182 -506q0 -225 -108 -408t-306 -261
q350 -498 690 -498z" />
    <glyph glyph-name="R.alt" unicode="&#xe0ba;" horiz-adv-x="1409" 
d="M2324 -82q0 -233 -124 -395t-325 -162q-202 0 -344 116q-73 60 -126 114q-104 106 -299 463t-256 444q-123 174 -252 186h-186v-367q0 -249 42 -287q22 -19 76 -22l43 -2v-6h-510v6l43 2q55 2 77 22q42 37 42 287v746q0 250 -42 288q-22 19 -77 21l-43 2v6h676
q195 0 323 -91t128 -257q0 -110 -69 -190q-146 -170 -476 -158q193 -60 301 -164t331 -422t369 -446q146 -127 315 -127q169 1 261 109t92 284h10zM412 692h272q174 0 236 88q61 88 61 251t-63 252t-179 89h-231q-68 0 -82 -49t-14 -260v-371z" />
    <glyph glyph-name="numbersign.LP" unicode="&#xe332;" horiz-adv-x="1105" 
d="M381 856l-51 -334h319l51 334h-319zM88 426v96h234l51 334h-285v98h299l66 426h8l-66 -426h320l65 426h8l-65 -426h211v-98h-225l-52 -334h277v-96h-291l-63 -426h-11l66 426h-320l-63 -426h-10l65 426h-219z" />
    <glyph glyph-name="Euro.LP" unicode="&#xe333;" horiz-adv-x="1251" 
d="M862 221q0 43 32 74t80 31t79 -31t30 -78q0 -88 -89 -166t-251 -78q-219 0 -349 158t-148 473h-144v8h144q-2 29 -2 81t4 134h-146v9h148q26 266 146 418t339 153q150 0 242 -74t92 -155q0 -45 -30 -74q-31 -29 -75 -29t-74 29t-30 70q0 42 23 82t22 51q0 31 -42 61
t-125 31q-162 0 -227 -161q-57 -141 -67 -402h412v-9h-412v-125q0 -61 2 -90h410v-8h-410q16 -624 302 -622q162 0 161 100q0 12 -23 54q-24 42 -24 85z" />
    <glyph glyph-name="dollar.LP" unicode="&#xe334;" horiz-adv-x="1040" 
d="M242 1140q0 -108 68 -176t202 -139v574q-146 -2 -208 -76q-62 -75 -62 -183zM829 274q0 164 -214 277q-34 18 -95 49v-618q309 3 309 292zM512 -231v204q-186 2 -299 76t-113 158q0 47 31 78t79 31t80 -32q32 -30 32 -73t-24 -85t-24 -57t20 -35t78 -36q56 -16 140 -16
v622q-92 47 -140 77q-165 103 -209 211q-30 71 -30 161q1 152 103 252t276 102v207h8v-207h2q166 0 274 -75t107 -158q0 -47 -31 -78q-30 -31 -78 -31t-80 31t-32 74q0 42 24 84t24 58t-20 34q-18 20 -68 36t-120 17h-2v-578l58 -29q129 -68 159 -91q31 -23 65 -51t47 -47
t39 -55t39 -100q13 -63 13 -104q0 -174 -114 -271t-306 -100v-204h-8z" />
    <glyph glyph-name="cent.LP" unicode="&#xe335;" horiz-adv-x="1048" 
d="M279 528q0 -374 140 -480q56 -42 138 -48v1032h-2q-102 0 -167 -79t-87 -189t-22 -236zM557 -231v204q-221 2 -350 160t-129 376t129 375t348 156h2v205h10v-205q161 -4 267 -83t106 -160q0 -47 -31 -78t-79 -31t-80 31t-31 74q0 43 23 85q24 42 24 57t-18 35t-66 40
t-115 22v-1032h21q129 0 227 84t129 213l10 -2q-31 -135 -136 -227t-251 -95v-204h-10z" />
    <glyph glyph-name="sterling.LP" unicode="&#xe336;" horiz-adv-x="1062" 
d="M133 694h191q-39 84 -57 123q-58 133 -58 236q0 141 98 247t285 107q119 0 216 -55t97 -131q1 -45 -29 -74t-76 -29t-76 30t-30 70t23 76t22 47q0 23 -50 40t-97 18q-125 -1 -176 -63t-51 -156q1 -94 25 -172t63 -170t53 -144h340v-8h-338q23 -72 22 -137
q0 -113 -54 -207t-173 -192h346q232 0 258 33q12 15 15 59l2 41h6v-283h-789v18l174 154q103 90 103 206t-90 308h-195v8z" />
    <glyph glyph-name="florin.LP" unicode="&#xe337;" horiz-adv-x="1112" 
d="M334 -166v852h-178v8h178v334q0 174 111 277q112 102 290 102q117 0 205 -55t88 -131q0 -45 -30 -74t-76 -29t-75 30q-30 30 -30 70t23 76t22 47q0 23 -41 40t-86 18q-133 -1 -178 -57t-45 -214v-434h356v-8h-356v-758q0 -143 -83 -232t-222 -89q-92 0 -150 50
q-57 50 -57 124q0 41 27 67t67 25q40 0 69 -27q27 -26 27 -62t-20 -70t-20 -44q0 -55 64 -55t92 50t28 169z" />
    <glyph glyph-name="yen.LP" unicode="&#xe338;" horiz-adv-x="1124" 
d="M182 473h285v213h-285v8h281l-172 348q-11 27 -31 66l-30 59q-30 66 -44 90q-14 23 -26 43t-36 46t-46 26l-27 2v6h418v-6l-33 -2q-93 -5 -10 -197q18 -44 55 -126l160 -347l180 404q35 76 35 169t-84 97h-33v8h332v-8h-33q-41 -2 -101 -83t-106 -181l-182 -414h279v-8
h-281v-213h281v-8h-281v-227q0 -187 31 -214q16 -15 57 -18h33v-6h-422v6h33q41 2 57 16q31 28 31 216v227h-285v8z" />
    <glyph glyph-name="zero.LP" unicode="&#xe33a;" horiz-adv-x="1183" 
d="M1102 692q0 -324 -135 -522t-375 -197q-240 0 -375 198q-135 197 -135 521t135 520t375 195q240 1 375 -195t135 -520zM606 -18q104 0 174 95t94 243t23 340q0 194 -13 315q-30 280 -141 373q-61 51 -151 51q-179 0 -246 -202q-59 -177 -59 -509q0 -527 153 -655
q61 -51 166 -51z" />
    <glyph glyph-name="one.LP" unicode="&#xe33b;" horiz-adv-x="722" 
d="M506 1380v-1099q0 -232 34 -258q15 -12 58 -15l82 -2v-6h-526v6l82 2q43 2 58 14q32 27 34 259v929q-82 -178 -283 -303l-6 8q143 82 229 212t119 253h119z" />
    <glyph glyph-name="two.LP" unicode="&#xe33c;" horiz-adv-x="1136" 
d="M756 150q229 0 258 33q12 15 14 59l2 41h6v-283h-911v18l231 211q315 282 363 498q20 94 20 261t-57 289t-174 122q-182 0 -182 -103q0 -10 22 -47t23 -77q0 -40 -30 -69q-30 -30 -76 -30t-76 29t-29 74q0 92 101 162t270 69q169 0 291 -101t122 -323q0 -121 -106 -285
q-40 -62 -144 -166t-176 -170t-237 -212h475z" />
    <glyph glyph-name="three.LP" unicode="&#xe33d;" horiz-adv-x="1134" 
d="M502 -27q-202 1 -294 63q-93 62 -93 146q0 45 29 74q30 29 76 29t76 -30t30 -69q0 -40 -23 -76t-23 -52q1 -39 62 -57q61 -19 135 -19q319 0 320 391q0 186 -68 275t-240 89h-186v8h186q130 0 183 49t59 157q2 34 2 104q0 150 -64 247q-65 97 -196 97q-92 0 -132 -25
t-40 -55q0 -12 23 -49q22 -37 22 -76t-30 -69q-30 -29 -76 -29t-75 28q-30 28 -30 74q0 84 89 146q90 62 272 63q182 0 312 -91t130 -259q0 -125 -100 -207t-269 -109q211 -31 322 -119t110 -249q-1 -195 -149 -297t-350 -103z" />
    <glyph glyph-name="four.LP" unicode="&#xe33e;" horiz-adv-x="1185" 
d="M653 465v739l-575 -739h575zM827 457v-140q0 -247 42 -287q22 -19 77 -22l43 -2v-6h-497v6l43 2q55 2 77 22q42 38 41 287v140h-585v8l731 942h28v-942h228v-8h-228z" />
    <glyph glyph-name="five.LP" unicode="&#xe33f;" horiz-adv-x="1077" 
d="M197 1380h360q191 0 245 20t62 79l6 41h7l-37 -285q-137 14 -338 14h-297v-528q67 37 97 52q98 48 218 48q207 0 339 -118t132 -311q-1 -193 -151 -306t-346 -113q-196 1 -288 63q-93 62 -93 146q0 45 29 74q30 29 76 29t76 -30t30 -69q0 -40 -23 -76t-23 -52
q1 -39 62 -57q61 -19 135 -19q311 0 311 405q0 221 -120 346q-70 72 -176 72t-191 -41q-31 -14 -94 -49l-8 4v661z" />
    <glyph glyph-name="six.LP" unicode="&#xe340;" horiz-adv-x="1230" 
d="M651 844q-184 0 -315 -142v-133q0 -232 57 -396q31 -89 91 -141t143 -52q266 0 266 444q0 127 -19 214q-18 86 -74 146t-149 60zM664 864q194 0 314 -116t120 -315q0 -198 -134 -329t-341 -131q-129 1 -225 53t-153 143q-112 182 -112 449q0 390 173 615q134 174 400 174
q142 0 237 -65t95 -140q0 -40 -26 -66t-68 -26q-40 0 -68 27t-28 63t20 69q20 34 20 47t-20 32q-58 51 -198 51q-82 0 -153 -50q-168 -118 -181 -632q133 147 328 147z" />
    <glyph glyph-name="seven.LP" unicode="&#xe341;" horiz-adv-x="1030" 
d="M127 1104v276h856v-28l-248 -480q-92 -178 -120 -349t-27 -453q0 -41 -29 -69t-71 -28t-70 28t-27 69q0 124 36 242t77 193q42 75 114 191t105 178l195 365l-510 -2q-232 0 -258 -34q-12 -15 -15 -58l-2 -41h-6z" />
    <glyph glyph-name="eight.LP" unicode="&#xe342;" horiz-adv-x="1224" 
d="M609 -27q-208 0 -347 108t-139 288q0 139 101 238t304 126q-170 15 -265 109t-95 209q0 164 129 260t311 96t312 -96t129 -260q0 -117 -84 -202t-267 -116q203 -29 303 -127t101 -237q0 -180 -142 -288t-351 -108zM608 729q-150 0 -218 -105q-68 -104 -68 -272t74 -269
t211 -101q138 0 214 101t76 263q0 383 -289 383zM610 737q139 0 192 76q52 76 52 250t-56 255t-188 81t-186 -80q-55 -80 -55 -256t51 -251t190 -75z" />
    <glyph glyph-name="nine.LP" unicode="&#xe343;" horiz-adv-x="1230" 
d="M580 537q182 0 313 139q2 44 2 146t-13 199q-51 380 -278 380q-266 0 -266 -445q0 -127 18 -214t74 -146t150 -59zM133 948q0 198 134 328q134 131 341 131q362 0 462 -399q28 -113 28 -237q0 -396 -173 -624q-133 -173 -401 -173q-142 0 -236 64q-95 65 -95 140
q0 41 26 67q27 25 68 25t69 -26t27 -63q-1 -35 -21 -69t-20 -47t20 -32q56 -51 198 -51q82 0 153 50q124 89 160 360q15 114 20 270q-131 -146 -326 -146t-315 117t-119 315z" />
    <glyph glyph-name="A.alt" unicode="&#xe352;" horiz-adv-x="1382" 
d="M606 1198l-235 -616h473zM-469 -631q190 0 332 158q141 158 266 475l547 1399h22l432 -1057q90 -221 126 -275t116 -63v-6h-489v6l53 2q84 2 85 58t-81 268l-92 239h-481l-220 -571q-151 -395 -291 -518t-327 -123q-131 0 -232 58t-102 169q0 51 33 86t83 35t83 -32
q33 -33 33 -75t-25 -81t-25 -60q1 -45 51 -69t103 -23z" />
    <glyph glyph-name="B.alt" unicode="&#xe3ec;" horiz-adv-x="2068" 
d="M1083 1063v-350h254q127 0 206 84t79 249q0 166 -77 246t-189 80h-176q-68 0 -82 -49t-15 -260zM1083 705v-388q1 -211 15 -260t82 -49h170q348 0 348 346q0 168 -90 259t-269 92h-256zM735 1380h621q211 0 342 -83t131 -236t-124 -237t-304 -115q185 -21 325 -92
q82 -40 131 -111q48 -72 48 -166q0 -174 -150 -257t-405 -83h-615v6l43 2q55 2 77 22q42 37 42 287v746q0 250 -42 288q-22 19 -77 21l-43 2q-276 -2 -470 -147t-193 -381q0 -55 22 -105q23 -49 68 -49q20 0 59 25t82 25t75 -34q32 -32 32 -82t-35 -83t-86 -33
q-111 0 -169 101t-58 241t58 248q101 190 370 254q114 26 245 26z" />
    <glyph glyph-name="D.alt" unicode="&#xe3ed;" horiz-adv-x="2191" 
d="M1407 1372h-227q-68 0 -82 -49t-15 -260v-746q1 -211 15 -260t82 -49h227q165 0 277 100q204 183 204 583q0 399 -216 585q-111 96 -265 96zM735 1380h672q328 0 510 -196t182 -491q0 -297 -186 -495t-504 -198h-674v6l43 2q55 2 77 22q42 37 42 287v746q0 250 -42 288
q-22 19 -77 21l-43 2q-276 -2 -470 -147t-193 -381q0 -55 22 -105q23 -49 68 -49q20 0 59 25t82 25t75 -34q32 -32 32 -82t-35 -83t-86 -33q-111 0 -169 101t-58 241t58 248q101 190 370 254q114 26 245 26z" />
    <glyph glyph-name="F.alt" unicode="&#xe3ee;" horiz-adv-x="1251" 
d="M412 664v-637q0 -309 -140 -487t-391 -179q-143 0 -229 62t-86 145q0 49 33 81t83 32t82 -32t33 -76q-1 -44 -25 -85q-24 -40 -24 -60t33 -39t102 -20q197 0 270 138t72 520v1036q0 250 -42 288q-22 19 -77 21l-43 2v6h1045v-411h-6l-23 69q-39 117 -81 187
q-42 71 -99 101t-105 38t-132 8h-154q-68 0 -82 -49t-14 -260v-391h157q153 0 210 84q28 39 44 100l13 45h6v-508h-6l-13 45q-27 98 -70 151q-44 52 -83 63t-101 12h-157z" />
    <glyph glyph-name="H.alt" unicode="&#xe3ef;" horiz-adv-x="1595" 
d="M1370 1354v-1037q0 -249 42 -287q22 -19 77 -22l43 -2v-6h-510v6l43 2q55 2 77 22q42 37 42 287v388h-772v-388q0 -249 42 -287q22 -19 76 -22l43 -2v-6h-510v6l43 2q55 2 77 22q42 37 42 287v746q0 250 -42 288q-22 19 -77 21l-43 2v6h510v-6l-43 -2q-54 -2 -76 -21
q-42 -37 -42 -288v-350h772v641q0 309 139 487t391 178q144 0 230 -62t86 -145q0 -48 -33 -80t-83 -32t-83 32t-33 76t25 84q25 41 25 61t-33 39t-103 19q-198 0 -270 -138t-72 -519z" />
    <glyph glyph-name="L.alt" unicode="&#xe3f1;" horiz-adv-x="1241" 
d="M225 317v1039q0 381 -72 519q-73 138 -270 138q-71 0 -103 -19q-32 -18 -32 -38t25 -62t25 -84q0 -44 -34 -76q-32 -32 -82 -32t-83 32t-33 81q0 82 86 144t229 62q252 0 391 -178t140 -487v-1039q0 -211 14 -260t82 -49h164q111 0 174 26q134 55 244 390l22 70h6v-494
h-1055v6l43 2q55 2 77 22q42 38 42 287z" />
    <glyph glyph-name="M.alt" unicode="&#xe3f2;" horiz-adv-x="1734" 
d="M1509 1352v-1035q0 -247 42 -287q22 -19 77 -22l43 -2v-6h-510v6l43 2q55 2 77 22q42 37 42 287v1002l-498 -909h-26l-547 858v-776q0 -146 36 -262q68 -218 177 -222l43 -2v-6h-445v6l23 2q84 8 121 126t37 358v571q0 252 -60 290q-27 17 -84 19l-37 2v6h347l499 -796
l441 796q166 301 249 408q186 229 422 231q131 0 233 -58t101 -169q0 -51 -33 -86t-83 -35q-51 0 -83 32t-32 75t24 82q25 39 25 59q0 45 -50 69t-104 23q-211 0 -361 -179t-149 -480z" />
    <glyph glyph-name="N.alt" unicode="&#xe3f3;" horiz-adv-x="1597" 
d="M1876 2011q-234 0 -372 -172t-140 -485l-10 -1372h-29l-1073 1275v-765q0 -146 36 -262q68 -218 177 -222l43 -2v-6h-445v6l23 2q84 8 121 126t37 358v571q0 252 -60 290q-27 17 -84 19l-37 2v6h338l947 -1147l-5 1121q-1 330 137 498t398 167q131 0 232 -58t102 -169
q0 -51 -33 -86t-83 -35t-83 32t-33 75t25 82q25 38 25 68t-40 56t-114 27z" />
    <glyph glyph-name="P.alt" unicode="&#xe3f4;" horiz-adv-x="1312" 
d="M412 592h323q248 0 248 369q0 228 -105 345q-60 67 -151 66h-219q-68 0 -82 -49t-14 -260v-471zM225 27v1036q0 250 -42 288q-22 19 -77 21l-43 2v6h664q217 0 350 -116t133 -293q0 -179 -123 -283t-352 -104h-323v-557q0 -309 -140 -487t-391 -179q-143 0 -229 62
t-86 145q0 49 33 81t83 32t82 -32t33 -76q-1 -44 -25 -85q-24 -40 -24 -60t33 -39t102 -20q197 0 270 138q72 139 72 520z" />
    <glyph glyph-name="T.alt" unicode="&#xe3f5;" horiz-adv-x="1724" 
d="M735 1380h926v-411h-6l-23 69q-75 229 -173 289q-71 45 -138 45h-53q-68 0 -82 -49t-15 -260v-746q0 -247 42 -287q22 -19 77 -22l43 -2v-6h-510v6l43 2q55 2 77 22q42 37 42 287v746q0 211 -14 260t-82 49h-154q-276 -2 -470 -146t-193 -380q0 -55 22 -105
q23 -49 68 -49q20 0 59 25t82 25t75 -34q32 -32 32 -82t-35 -83t-86 -33q-111 0 -169 101t-58 241t58 248q101 190 370 254q114 26 245 26z" />
    <glyph glyph-name="V.alt" unicode="&#xe3f6;" horiz-adv-x="1382" 
d="M1372 1380v-6l-22 -2q-47 -4 -77 -30q-64 -55 -210 -433l-356 -929h-23l-432 1056q-178 434 -350 633t-396 199q-109 0 -169 -54t-60 -153h-10q2 158 93 258q92 100 240 100q148 1 269 -71t223 -215t181 -301t171 -390l338 -843l273 710q59 154 59 299q0 78 -23 119
q-24 41 -92 45l-43 2v6h416z" />
    <glyph glyph-name="W.alt" unicode="&#xe3f7;" horiz-adv-x="1925" 
d="M2361 2019q131 0 233 -58t101 -169q0 -51 -33 -86t-83 -35q-51 0 -83 32t-32 75t24 82q25 39 25 59q0 45 -50 69t-104 23q-201 0 -355 -161t-243 -472l-395 -1403h-27l-399 1170l-381 -1170h-27l-301 1061q-61 216 -95 272t-99 64l-17 2v6h480v-6l-43 -2q-47 -2 -70 -17
q-45 -29 -14 -154q12 -52 41 -154l227 -789l373 1147h28l392 -1159l309 1134q84 309 228 474t390 165z" />
    <glyph glyph-name="X.alt" unicode="&#xe3f8;" horiz-adv-x="1396" 
d="M1931 -487q109 0 167 54t56 152h11q4 -139 -86 -249t-248 -109q-193 0 -359 156t-421 518l-435 616l-110 -157q-184 -260 -184 -381q0 -51 16 -77t65 -28l43 -2v-6h-426v6l23 2q61 4 163 112q101 108 292 380l112 159l-262 377q-145 207 -198 268t-127 70v6h485v-6
l-43 -2q-49 -4 -65 -23q-30 -35 54 -163q30 -47 95 -139l190 -275l82 115q184 260 185 381q0 51 -16 77t-66 27l-43 2v6h426v-6l-23 -2q-60 -4 -158 -109t-297 -382l-84 -117l496 -703q201 -287 369 -417t321 -131z" />
    <glyph glyph-name="Y.alt" unicode="&#xe3f9;" horiz-adv-x="1314" 
d="M1988 2019q116 0 216 -58q102 -58 102 -169q0 -51 -33 -86t-83 -35t-83 32t-33 75t25 82t25 59q0 45 -50 69t-104 23q-350 0 -774 -647l-448 -686v-361q0 -249 42 -287q22 -19 76 -22l43 -2v-6h-510v6l43 2q55 2 77 22q42 37 42 287v355l-237 364q-48 69 -112 175
q-64 105 -99 129q-10 8 -26 20t-48 12l-37 2v6h506v-6l-43 -2q-88 -6 -72 -80q14 -57 131 -245l219 -357l435 678q74 115 131 196t139 174t157 149t171 94t212 38z" />
    <glyph glyph-name="Z.alt" unicode="&#xe3fa;" horiz-adv-x="1988" 
d="M1253 8q274 0 469 146t195 381q0 55 -23 104t-67 49q-19 0 -59 -24t-82 -25q-42 0 -75 33q-32 33 -32 83t35 83t86 32q111 0 169 -101t58 -240t-58 -248q-57 -109 -157 -168q-191 -113 -459 -113h-1110v27l756 1345h-268q-84 0 -132 -8q-134 -22 -205 -139
q-42 -70 -81 -187l-23 -69h-6v411h922v-26l-774 -1346h921z" />
    <glyph glyph-name="loop.01" unicode="&#xe3fb;" horiz-adv-x="634" 
d="M733 1380h107v-8h-107q-274 0 -469 -145t-194 -381q0 -55 22 -105q23 -49 68 -49q20 0 59 25t82 25t75 -34q32 -32 32 -82t-35 -83t-86 -33q-111 0 -169 101t-58 241t58 248q101 190 370 254q114 26 245 26z" />
    <glyph glyph-name="loop.02" unicode="&#xe3fc;" horiz-adv-x="634" 
d="M840 1372h-107q-268 0 -458 113q-99 59 -157 168t-58 248t58 240t169 102q51 0 86 -33t35 -83t-32 -83t-75 -33t-82 25t-59 24q-45 0 -68 -49t-22 -104q0 -236 194 -381t469 -146h107v-8z" />
    <glyph glyph-name="loop.03" unicode="&#xe3fd;" horiz-adv-x="634" 
d="M840 0h-107q-268 0 -458 113q-99 59 -157 168t-58 248t58 240t169 101q51 0 86 -32t35 -83q0 -50 -32 -83t-75 -33t-82 25t-59 24q-45 0 -68 -49t-22 -104q0 -236 194 -381t469 -146h107v-8z" />
    <glyph glyph-name="loop.04" unicode="&#xe3fe;" horiz-adv-x="634" 
d="M733 8h107v-8h-107q-274 0 -469 -145t-194 -381q0 -55 22 -105q23 -49 68 -49q20 0 59 25t82 25t75 -34q32 -32 32 -82t-35 -83t-86 -33q-111 0 -169 101t-58 241t58 248q101 190 370 254q114 26 245 26z" />
    <glyph glyph-name="loop.05" unicode="&#xe3ff;" horiz-adv-x="0" 
d="M412 1378h-187q0 365 -72 499q-73 134 -270 134q-71 0 -103 -19q-32 -18 -32 -38t25 -62t25 -85t-34 -75q-32 -32 -82 -32t-83 32t-33 80q0 82 86 144t229 63q251 0 391 -174t140 -467z" />
    <glyph glyph-name="loop.06" unicode="&#xe411;" horiz-adv-x="0" 
d="M225 2h187q0 -293 -140 -467t-391 -174q-143 0 -229 62t-86 145q0 49 33 81t83 32t82 -32t33 -76q-1 -44 -25 -85q-24 -40 -24 -60t33 -39t102 -20q197 0 270 134q72 134 72 499z" />
    <glyph glyph-name="loop.07" unicode="&#xe412;" horiz-adv-x="0" 
d="M-225 1378h-187q0 293 140 467t391 174q143 0 229 -62t86 -145q0 -48 -33 -80t-83 -32t-82 32t-33 76q0 44 24 84q25 41 25 61t-33 39t-102 19q-197 0 -269 -134t-73 -499z" />
    <glyph glyph-name="loop.08" unicode="&#xe413;" horiz-adv-x="0" 
d="M-412 2h187q1 -365 73 -499t269 -134q71 -1 103 19t32 40t-25 60q-25 41 -25 85t34 76q32 32 82 32t83 -32t33 -81q0 -82 -86 -144t-229 -63q-251 0 -391 174t-140 467z" />
    <glyph glyph-name="loop.09" unicode="&#xe414;" horiz-adv-x="634" 
d="M-100 1372h-107v8h107q274 0 469 146t194 381q0 55 -22 104q-23 49 -68 49q-20 0 -59 -24t-82 -25q-43 0 -75 33t-32 83t35 83t86 33q111 1 169 -101t58 -241t-58 -248q-101 -190 -371 -254q-113 -27 -244 -27z" />
    <glyph glyph-name="loop.10" unicode="&#xe415;" horiz-adv-x="634" 
d="M-207 1380h107q269 0 457 -112q99 -59 157 -168t59 -248q0 -138 -58 -240t-169 -102q-51 0 -86 33t-35 83t32 83t75 33t82 -26q39 -24 59 -24q45 0 68 49t22 105q0 236 -194 381q-195 145 -469 145h-107v8z" />
    <glyph glyph-name="loop.11" unicode="&#xe416;" horiz-adv-x="634" 
d="M-100 0h-107v8h107q274 0 469 146t194 381q0 55 -22 104q-23 49 -68 49q-20 0 -59 -24t-82 -25q-43 0 -75 33t-32 83t35 83t86 32q111 0 169 -101t58 -240t-58 -248q-101 -190 -371 -254q-113 -27 -244 -27z" />
    <glyph glyph-name="loop.12" unicode="&#xe417;" horiz-adv-x="634" 
d="M-207 8h107q269 0 457 -112q99 -59 157 -168t59 -248q0 -138 -58 -240t-169 -102q-51 0 -86 33t-35 83t32 82t75 33q43 -1 82 -25t59 -24q45 0 68 49t22 105q0 236 -194 381q-195 145 -469 145h-107v8z" />
    <glyph glyph-name="s_t" unicode="&#xfb06;" horiz-adv-x="1597" 
d="M639 153q0 81 -53 130t-129 79t-151 67t-128 103t-53 168t80 174q80 70 196 70q68 0 123 -26q-116 86 -116 208t104 201q104 80 254 80q205 0 336 -99t131 -268v-120h235v-9h-235v-628q0 -206 54 -256q28 -27 71 -27q131 0 131 201h8q0 -105 -40 -165q-39 -60 -149 -60
t-178 80q-68 81 -67 227v628h-145v9h145v120q0 176 -76 268t-222 91q-147 0 -237 -76t-90 -209t125 -217q27 -18 49 -18t76 65h6v-268h-10l-14 47q-31 101 -103 157q-71 56 -159 56t-134 -40t-47 -112t53 -122t131 -82q77 -33 153 -70t129 -107q55 -69 55 -177t-92 -180
t-210 -73q-118 0 -208 54q-41 23 -52 22q-37 0 -96 -76h-8v310h12l15 -47q33 -104 109 -180q76 -74 190 -74t173 45q58 45 58 126z" />
    <glyph glyph-name="nbspace" 
 />
    <glyph glyph-name="caronSlovak" 
d="M860 0h-692v1382h692v-1382zM223 1303v-859l252 -247v125l-168 221v151l414 -411v-125l80 -84v512l-80 80v-156l-414 412v133l168 -111v111z" />
    <glyph glyph-name="L.alt02" horiz-adv-x="698" 
d="M391 0h-328v6l43 2q55 2 77 22q42 37 42 287v746q0 250 -42 288q-22 19 -77 21l-43 2v6h510v-6l-43 -2q-54 -2 -76 -21q-42 -37 -42 -288v-1051q214 -15 455 -190q99 -72 197 -143q230 -166 429 -166q109 0 167 54t56 152h10q4 -139 -86 -249t-246 -109q-157 0 -320 128
q-89 71 -133 111t-174 167t-208 180t-168 53z" />
    <glyph glyph-name="N.alt02" horiz-adv-x="1597" 
d="M1354 889v-666q238 -289 412 -449t283 -211q107 -50 217 -50t168 54t56 152h11q4 -139 -86 -249t-264 -109q-174 0 -357 140q-182 140 -469 483l-1073 1273v-765q0 -146 36 -262q68 -218 177 -222l43 -2v-6h-445v6l23 2q84 8 121 126t37 358v571q0 252 -60 290
q-27 17 -84 19l-37 2v6h338l945 -1144v653q0 143 -36 260t-79 169t-98 54l-43 2v6h444v-6l-23 -2q-85 -8 -121 -126t-36 -357z" />
    </font>
</defs>
</svg>
